<svg xmlns="http://www.w3.org/2000/svg" xmlns:xlink="http://www.w3.org/1999/xlink" height="243pt" viewBox="0.00 0.00 298.50 243.00" width="299pt">
<g class="graph" id="graph0" transform="scale(1 1) rotate(0) translate(4 239)">
<title>G</title>
<polygon fill="white" points="-4,4 -4,-239 294.5,-239 294.5,4 -4,4" stroke="none" />
<g class="cluster" id="clust3"><title>cluster_legend</title>
</g>

<g class="node" id="node1"><title>node1</title>
<svg height="43px" preserveAspectRatio="xMinYMin meet" version="1.1" viewBox="0 0 211.5 57.847969" width="159px" x="4.5" y="-108.5">
 <defs>
  <style type="text/css">
*{stroke-linecap:butt;stroke-linejoin:round;}
  </style>
 </defs>
 <g id="figure_1">
  <g id="patch_1">
   <path d="M 0 57.847969  L 211.5 57.847969  L 211.5 0  L 0 0  z " style="fill:#ffffff;" />
  </g>
  <g id="axes_1">
   <g id="patch_2">
    <path d="M 27.36 30.759375  L 211.5 30.759375  L 211.5 3.039375  L 27.36 3.039375  z " style="fill:#e5e5e5;" />
   </g>
   <g id="matplotlib.axis_1">
    <g id="xtick_1">
     <g id="line2d_1">
      <path clip-path="url(#pefca78be97)" d="M 27.36 30.759375  L 27.36 3.039375  " style="fill:none;stroke:#ffffff;stroke-linecap:square;stroke-width:0.8;" />
     </g>
     <g id="line2d_2">
      <defs>
       <path d="M 0 0  L 0 3.5  " id="m4ad17c8d17" style="stroke:#555555;stroke-width:0.3;" />
      </defs>
      <g>
       <use style="fill:#555555;stroke:#555555;stroke-width:0.3;" x="27.36" y="30.759375" xlink:href="#m4ad17c8d17" />
      </g>
     </g>
     <g id="text_1">
      
      <defs>
       <path d="M 31.78125 66.40625  Q 24.171875 66.40625 20.328125 58.90625  Q 16.5 51.421875 16.5 36.375  Q 16.5 21.390625 20.328125 13.890625  Q 24.171875 6.390625 31.78125 6.390625  Q 39.453125 6.390625 43.28125 13.890625  Q 47.125 21.390625 47.125 36.375  Q 47.125 51.421875 43.28125 58.90625  Q 39.453125 66.40625 31.78125 66.40625  z M 31.78125 74.21875  Q 44.046875 74.21875 50.515625 64.515625  Q 56.984375 54.828125 56.984375 36.375  Q 56.984375 17.96875 50.515625 8.265625  Q 44.046875 -1.421875 31.78125 -1.421875  Q 19.53125 -1.421875 13.0625 8.265625  Q 6.59375 17.96875 6.59375 36.375  Q 6.59375 54.828125 13.0625 64.515625  Q 19.53125 74.21875 31.78125 74.21875  z " id="DejaVuSans-48" />
      </defs>
      <g style="fill:#444443;" transform="translate(24.815 43.838125)scale(0.08 -0.08)">
       <use xlink:href="#DejaVuSans-48" />
      </g>
     </g>
    </g>
    <g id="xtick_2">
     <g id="line2d_3">
      <path clip-path="url(#pefca78be97)" d="M 202.731429 30.759375  L 202.731429 3.039375  " style="fill:none;stroke:#ffffff;stroke-linecap:square;stroke-width:0.8;" />
     </g>
     <g id="line2d_4">
      <g>
       <use style="fill:#555555;stroke:#555555;stroke-width:0.3;" x="202.731429" y="30.759375" xlink:href="#m4ad17c8d17" />
      </g>
     </g>
     <g id="text_2">
      
      <defs>
       <path d="M 12.40625 8.296875  L 28.515625 8.296875  L 28.515625 63.921875  L 10.984375 60.40625  L 10.984375 69.390625  L 28.421875 72.90625  L 38.28125 72.90625  L 38.28125 8.296875  L 54.390625 8.296875  L 54.390625 0  L 12.40625 0  z " id="DejaVuSans-49" />
      </defs>
      <g style="fill:#444443;" transform="translate(200.186429 43.838125)scale(0.08 -0.08)">
       <use xlink:href="#DejaVuSans-49" />
      </g>
     </g>
    </g>
    <g id="text_3">
     
     <defs>
      <path d="M 7.90625 0  L 7.90625 71.578125  L 59.671875 71.578125  L 59.671875 63.140625  L 17.390625 63.140625  L 17.390625 41.21875  L 56.984375 41.21875  L 56.984375 32.8125  L 17.390625 32.8125  L 17.390625 8.453125  L 61.328125 8.453125  L 61.328125 0  z " id="ArialMT-69" />
      <path d="M 7.328125 0  L 7.328125 71.578125  L 16.796875 71.578125  L 16.796875 36.078125  L 52.34375 71.578125  L 65.1875 71.578125  L 35.15625 42.578125  L 66.5 0  L 54 0  L 28.515625 36.234375  L 16.796875 24.8125  L 16.796875 0  z " id="ArialMT-75" />
      <path d="M 4.828125 34.859375  Q 4.828125 52.6875 14.390625 62.765625  Q 23.96875 72.859375 39.109375 72.859375  Q 49.03125 72.859375 56.984375 68.109375  Q 64.9375 63.375 69.109375 54.90625  Q 73.296875 46.4375 73.296875 35.6875  Q 73.296875 24.8125 68.890625 16.21875  Q 64.5 7.625 56.4375 3.203125  Q 48.390625 -1.21875 39.0625 -1.21875  Q 28.953125 -1.21875 20.984375 3.65625  Q 13.03125 8.546875 8.921875 16.984375  Q 4.828125 25.4375 4.828125 34.859375  z M 14.59375 34.71875  Q 14.59375 21.78125 21.546875 14.328125  Q 28.515625 6.890625 39.015625 6.890625  Q 49.703125 6.890625 56.609375 14.40625  Q 63.53125 21.921875 63.53125 35.75  Q 63.53125 44.484375 60.578125 51  Q 57.625 57.515625 51.921875 61.109375  Q 46.234375 64.703125 39.15625 64.703125  Q 29.109375 64.703125 21.84375 57.78125  Q 14.59375 50.875 14.59375 34.71875  z " id="ArialMT-79" />
      <path d="M 7.859375 0  L 7.859375 71.578125  L 39.59375 71.578125  Q 49.171875 71.578125 54.140625 69.640625  Q 59.125 67.71875 62.109375 62.828125  Q 65.09375 57.953125 65.09375 52.046875  Q 65.09375 44.4375 60.15625 39.203125  Q 55.21875 33.984375 44.921875 32.5625  Q 48.6875 30.765625 50.640625 29  Q 54.78125 25.203125 58.5 19.484375  L 70.953125 0  L 59.03125 0  L 49.5625 14.890625  Q 45.40625 21.34375 42.71875 24.75  Q 40.046875 28.171875 37.921875 29.53125  Q 35.796875 30.90625 33.59375 31.453125  Q 31.984375 31.78125 28.328125 31.78125  L 17.328125 31.78125  L 17.328125 0  z M 17.328125 39.984375  L 37.703125 39.984375  Q 44.1875 39.984375 47.84375 41.328125  Q 51.515625 42.671875 53.421875 45.625  Q 55.328125 48.578125 55.328125 52.046875  Q 55.328125 57.125 51.640625 60.390625  Q 47.953125 63.671875 39.984375 63.671875  L 17.328125 63.671875  z " id="ArialMT-82" />
      <path d="M 41.21875 28.078125  L 41.21875 36.46875  L 71.53125 36.53125  L 71.53125 9.96875  Q 64.546875 4.390625 57.125 1.578125  Q 49.703125 -1.21875 41.890625 -1.21875  Q 31.34375 -1.21875 22.71875 3.296875  Q 14.109375 7.8125 9.71875 16.359375  Q 5.328125 24.90625 5.328125 35.453125  Q 5.328125 45.90625 9.6875 54.953125  Q 14.0625 64.015625 22.265625 68.40625  Q 30.46875 72.796875 41.15625 72.796875  Q 48.921875 72.796875 55.1875 70.28125  Q 61.46875 67.78125 65.03125 63.28125  Q 68.609375 58.796875 70.453125 51.5625  L 61.921875 49.21875  Q 60.296875 54.6875 57.90625 57.8125  Q 55.515625 60.9375 51.0625 62.8125  Q 46.625 64.703125 41.21875 64.703125  Q 34.71875 64.703125 29.984375 62.71875  Q 25.25 60.75 22.34375 57.515625  Q 19.4375 54.296875 17.828125 50.4375  Q 15.09375 43.796875 15.09375 36.03125  Q 15.09375 26.46875 18.390625 20.015625  Q 21.6875 13.578125 27.984375 10.453125  Q 34.28125 7.328125 41.359375 7.328125  Q 47.515625 7.328125 53.375 9.6875  Q 59.234375 12.0625 62.25 14.75  L 62.25 28.078125  z " id="ArialMT-71" />
      <path d="M -1.515625 -19.875  L -1.515625 -13.53125  L 56.734375 -13.53125  L 56.734375 -19.875  z " id="ArialMT-95" />
      <path d="M 7.328125 0  L 7.328125 71.578125  L 34.1875 71.578125  Q 42.390625 71.578125 47.34375 69.40625  Q 52.296875 67.234375 55.09375 62.71875  Q 57.90625 58.203125 57.90625 53.265625  Q 57.90625 48.6875 55.421875 44.625  Q 52.9375 40.578125 47.90625 38.09375  Q 54.390625 36.1875 57.875 31.59375  Q 61.375 27 61.375 20.75  Q 61.375 15.71875 59.25 11.390625  Q 57.125 7.078125 54 4.734375  Q 50.875 2.390625 46.15625 1.1875  Q 41.453125 0 34.625 0  z M 16.796875 41.5  L 32.28125 41.5  Q 38.578125 41.5 41.3125 42.328125  Q 44.921875 43.40625 46.75 45.890625  Q 48.578125 48.390625 48.578125 52.15625  Q 48.578125 55.71875 46.875 58.421875  Q 45.171875 61.140625 41.984375 62.140625  Q 38.8125 63.140625 31.109375 63.140625  L 16.796875 63.140625  z M 16.796875 8.453125  L 34.625 8.453125  Q 39.203125 8.453125 41.0625 8.796875  Q 44.34375 9.375 46.53125 10.734375  Q 48.734375 12.109375 50.140625 14.71875  Q 51.5625 17.328125 51.5625 20.75  Q 51.5625 24.75 49.515625 27.703125  Q 47.46875 30.671875 43.828125 31.859375  Q 40.1875 33.0625 33.34375 33.0625  L 16.796875 33.0625  z " id="ArialMT-66" />
      <path d="M 50.34375 8.453125  L 50.34375 0  L 3.03125 0  Q 2.9375 3.171875 4.046875 6.109375  Q 5.859375 10.9375 9.828125 15.625  Q 13.8125 20.3125 21.34375 26.46875  Q 33.015625 36.03125 37.109375 41.625  Q 41.21875 47.21875 41.21875 52.203125  Q 41.21875 57.421875 37.46875 61  Q 33.734375 64.59375 27.734375 64.59375  Q 21.390625 64.59375 17.578125 60.78125  Q 13.765625 56.984375 13.71875 50.25  L 4.6875 51.171875  Q 5.609375 61.28125 11.65625 66.578125  Q 17.71875 71.875 27.9375 71.875  Q 38.234375 71.875 44.234375 66.15625  Q 50.25 60.453125 50.25 52  Q 50.25 47.703125 48.484375 43.546875  Q 46.734375 39.40625 42.65625 34.8125  Q 38.578125 30.21875 29.109375 22.21875  Q 21.1875 15.578125 18.9375 13.203125  Q 16.703125 10.84375 15.234375 8.453125  z " id="ArialMT-50" />
      <path d="M 4.15625 18.75  L 13.375 19.53125  Q 14.40625 12.796875 18.140625 9.390625  Q 21.875 6 27.15625 6  Q 33.5 6 37.890625 10.78125  Q 42.28125 15.578125 42.28125 23.484375  Q 42.28125 31 38.0625 35.34375  Q 33.84375 39.703125 27 39.703125  Q 22.75 39.703125 19.328125 37.765625  Q 15.921875 35.84375 13.96875 32.765625  L 5.71875 33.84375  L 12.640625 70.609375  L 48.25 70.609375  L 48.25 62.203125  L 19.671875 62.203125  L 15.828125 42.96875  Q 22.265625 47.46875 29.34375 47.46875  Q 38.71875 47.46875 45.15625 40.96875  Q 51.609375 34.46875 51.609375 24.265625  Q 51.609375 14.546875 45.953125 7.46875  Q 39.0625 -1.21875 27.15625 -1.21875  Q 17.390625 -1.21875 11.203125 4.25  Q 5.03125 9.71875 4.15625 18.75  z " id="ArialMT-53" />
     </defs>
     <g style="fill:#444443;" transform="translate(89.666016 56.059219)scale(0.09 -0.09)">
      <use xlink:href="#ArialMT-69" />
      <use x="66.699219" xlink:href="#ArialMT-75" />
      <use x="133.398438" xlink:href="#ArialMT-79" />
      <use x="211.181641" xlink:href="#ArialMT-82" />
      <use x="283.398438" xlink:href="#ArialMT-71" />
      <use x="361.181641" xlink:href="#ArialMT-95" />
      <use x="416.796875" xlink:href="#ArialMT-66" />
      <use x="483.496094" xlink:href="#ArialMT-69" />
      <use x="550.195312" xlink:href="#ArialMT-50" />
      <use x="605.810547" xlink:href="#ArialMT-53" />
     </g>
    </g>
   </g>
   <g id="matplotlib.axis_2">
    <g id="ytick_1">
     <g id="line2d_5">
      <path clip-path="url(#pefca78be97)" d="M 27.36 30.759375  L 211.5 30.759375  " style="fill:none;stroke:#ffffff;stroke-linecap:square;stroke-width:0.8;" />
     </g>
     <g id="line2d_6">
      <defs>
       <path d="M 0 0  L -3.5 0  " id="m5120afb4fd" style="stroke:#555555;stroke-width:0.3;" />
      </defs>
      <g>
       <use style="fill:#555555;stroke:#555555;stroke-width:0.3;" x="27.36" y="30.759375" xlink:href="#m5120afb4fd" />
      </g>
     </g>
     <g id="text_4">
      
      <g style="fill:#444443;" transform="translate(15.27 33.79875)scale(0.08 -0.08)">
       <use xlink:href="#DejaVuSans-48" />
      </g>
     </g>
    </g>
    <g id="ytick_2">
     <g id="line2d_7">
      <path clip-path="url(#pefca78be97)" d="M 27.36 3.039375  L 211.5 3.039375  " style="fill:none;stroke:#ffffff;stroke-linecap:square;stroke-width:0.8;" />
     </g>
     <g id="line2d_8">
      <g>
       <use style="fill:#555555;stroke:#555555;stroke-width:0.3;" x="27.36" y="3.039375" xlink:href="#m5120afb4fd" />
      </g>
     </g>
     <g id="text_5">
      
      <defs>
       <path d="M 40.578125 39.3125  Q 47.65625 37.796875 51.625 33  Q 55.609375 28.21875 55.609375 21.1875  Q 55.609375 10.40625 48.1875 4.484375  Q 40.765625 -1.421875 27.09375 -1.421875  Q 22.515625 -1.421875 17.65625 -0.515625  Q 12.796875 0.390625 7.625 2.203125  L 7.625 11.71875  Q 11.71875 9.328125 16.59375 8.109375  Q 21.484375 6.890625 26.8125 6.890625  Q 36.078125 6.890625 40.9375 10.546875  Q 45.796875 14.203125 45.796875 21.1875  Q 45.796875 27.640625 41.28125 31.265625  Q 36.765625 34.90625 28.71875 34.90625  L 20.21875 34.90625  L 20.21875 43.015625  L 29.109375 43.015625  Q 36.375 43.015625 40.234375 45.921875  Q 44.09375 48.828125 44.09375 54.296875  Q 44.09375 59.90625 40.109375 62.90625  Q 36.140625 65.921875 28.71875 65.921875  Q 24.65625 65.921875 20.015625 65.03125  Q 15.375 64.15625 9.8125 62.3125  L 9.8125 71.09375  Q 15.4375 72.65625 20.34375 73.4375  Q 25.25 74.21875 29.59375 74.21875  Q 40.828125 74.21875 47.359375 69.109375  Q 53.90625 64.015625 53.90625 55.328125  Q 53.90625 49.265625 50.4375 45.09375  Q 46.96875 40.921875 40.578125 39.3125  z " id="DejaVuSans-51" />
       <path d="M 19.1875 8.296875  L 53.609375 8.296875  L 53.609375 0  L 7.328125 0  L 7.328125 8.296875  Q 12.9375 14.109375 22.625 23.890625  Q 32.328125 33.6875 34.8125 36.53125  Q 39.546875 41.84375 41.421875 45.53125  Q 43.3125 49.21875 43.3125 52.78125  Q 43.3125 58.59375 39.234375 62.25  Q 35.15625 65.921875 28.609375 65.921875  Q 23.96875 65.921875 18.8125 64.3125  Q 13.671875 62.703125 7.8125 59.421875  L 7.8125 69.390625  Q 13.765625 71.78125 18.9375 73  Q 24.125 74.21875 28.421875 74.21875  Q 39.75 74.21875 46.484375 68.546875  Q 53.21875 62.890625 53.21875 53.421875  Q 53.21875 48.921875 51.53125 44.890625  Q 49.859375 40.875 45.40625 35.40625  Q 44.1875 33.984375 37.640625 27.21875  Q 31.109375 20.453125 19.1875 8.296875  z " id="DejaVuSans-50" />
       <path d="M 8.203125 72.90625  L 55.078125 72.90625  L 55.078125 68.703125  L 28.609375 0  L 18.3125 0  L 43.21875 64.59375  L 8.203125 64.59375  z " id="DejaVuSans-55" />
       <path d="M 10.796875 72.90625  L 49.515625 72.90625  L 49.515625 64.59375  L 19.828125 64.59375  L 19.828125 46.734375  Q 21.96875 47.46875 24.109375 47.828125  Q 26.265625 48.1875 28.421875 48.1875  Q 40.625 48.1875 47.75 41.5  Q 54.890625 34.8125 54.890625 23.390625  Q 54.890625 11.625 47.5625 5.09375  Q 40.234375 -1.421875 26.90625 -1.421875  Q 22.3125 -1.421875 17.546875 -0.640625  Q 12.796875 0.140625 7.71875 1.703125  L 7.71875 11.625  Q 12.109375 9.234375 16.796875 8.0625  Q 21.484375 6.890625 26.703125 6.890625  Q 35.15625 6.890625 40.078125 11.328125  Q 45.015625 15.765625 45.015625 23.390625  Q 45.015625 31 40.078125 35.4375  Q 35.15625 39.890625 26.703125 39.890625  Q 22.75 39.890625 18.8125 39.015625  Q 14.890625 38.140625 10.796875 36.28125  z " id="DejaVuSans-53" />
      </defs>
      <g style="fill:#444443;" transform="translate(0 6.07875)scale(0.08 -0.08)">
       <use xlink:href="#DejaVuSans-51" />
       <use x="63.623047" xlink:href="#DejaVuSans-50" />
       <use x="127.246094" xlink:href="#DejaVuSans-55" />
       <use x="190.869141" xlink:href="#DejaVuSans-53" />
      </g>
     </g>
    </g>
   </g>
   <g id="patch_3">
    <path clip-path="url(#pefca78be97)" d="M 27.36 30.759375  L 37.102857 30.759375  L 37.102857 3.039375  L 27.36 3.039375  z " style="fill:#fefebb;stroke:#444443;stroke-linejoin:miter;stroke-width:0.5;" />
   </g>
   <g id="patch_4">
    <path clip-path="url(#pefca78be97)" d="M 37.102857 30.759375  L 46.845714 30.759375  L 46.845714 30.759375  L 37.102857 30.759375  z " style="fill:#fefebb;stroke:#444443;stroke-linejoin:miter;stroke-width:0.5;" />
   </g>
   <g id="patch_5">
    <path clip-path="url(#pefca78be97)" d="M 46.845714 30.759375  L 56.588571 30.759375  L 56.588571 30.759375  L 46.845714 30.759375  z " style="fill:#fefebb;stroke:#444443;stroke-linejoin:miter;stroke-width:0.5;" />
   </g>
   <g id="patch_6">
    <path clip-path="url(#pefca78be97)" d="M 56.588571 30.759375  L 66.331429 30.759375  L 66.331429 30.759375  L 56.588571 30.759375  z " style="fill:#fefebb;stroke:#444443;stroke-linejoin:miter;stroke-width:0.5;" />
   </g>
   <g id="patch_7">
    <path clip-path="url(#pefca78be97)" d="M 66.331429 30.759375  L 76.074286 30.759375  L 76.074286 30.759375  L 66.331429 30.759375  z " style="fill:#fefebb;stroke:#444443;stroke-linejoin:miter;stroke-width:0.5;" />
   </g>
   <g id="patch_8">
    <path clip-path="url(#pefca78be97)" d="M 76.074286 30.759375  L 85.817143 30.759375  L 85.817143 30.759375  L 76.074286 30.759375  z " style="fill:#fefebb;stroke:#444443;stroke-linejoin:miter;stroke-width:0.5;" />
   </g>
   <g id="patch_9">
    <path clip-path="url(#pefca78be97)" d="M 85.817143 30.759375  L 95.56 30.759375  L 95.56 30.759375  L 85.817143 30.759375  z " style="fill:#fefebb;stroke:#444443;stroke-linejoin:miter;stroke-width:0.5;" />
   </g>
   <g id="patch_10">
    <path clip-path="url(#pefca78be97)" d="M 95.56 30.759375  L 105.302857 30.759375  L 105.302857 30.759375  L 95.56 30.759375  z " style="fill:#fefebb;stroke:#444443;stroke-linejoin:miter;stroke-width:0.5;" />
   </g>
   <g id="patch_11">
    <path clip-path="url(#pefca78be97)" d="M 105.302857 30.759375  L 115.045714 30.759375  L 115.045714 30.759375  L 105.302857 30.759375  z " style="fill:#fefebb;stroke:#444443;stroke-linejoin:miter;stroke-width:0.5;" />
   </g>
   <g id="patch_12">
    <path clip-path="url(#pefca78be97)" d="M 115.045714 30.759375  L 124.788571 30.759375  L 124.788571 30.759375  L 115.045714 30.759375  z " style="fill:#fefebb;stroke:#444443;stroke-linejoin:miter;stroke-width:0.5;" />
   </g>
   <g id="patch_13">
    <path clip-path="url(#pefca78be97)" d="M 124.788571 30.759375  L 134.531429 30.759375  L 134.531429 30.759375  L 124.788571 30.759375  z " style="fill:#fefebb;stroke:#444443;stroke-linejoin:miter;stroke-width:0.5;" />
   </g>
   <g id="patch_14">
    <path clip-path="url(#pefca78be97)" d="M 134.531429 30.759375  L 144.274286 30.759375  L 144.274286 30.759375  L 134.531429 30.759375  z " style="fill:#fefebb;stroke:#444443;stroke-linejoin:miter;stroke-width:0.5;" />
   </g>
   <g id="patch_15">
    <path clip-path="url(#pefca78be97)" d="M 144.274286 30.759375  L 154.017143 30.759375  L 154.017143 30.759375  L 144.274286 30.759375  z " style="fill:#fefebb;stroke:#444443;stroke-linejoin:miter;stroke-width:0.5;" />
   </g>
   <g id="patch_16">
    <path clip-path="url(#pefca78be97)" d="M 154.017143 30.759375  L 163.76 30.759375  L 163.76 30.759375  L 154.017143 30.759375  z " style="fill:#fefebb;stroke:#444443;stroke-linejoin:miter;stroke-width:0.5;" />
   </g>
   <g id="patch_17">
    <path clip-path="url(#pefca78be97)" d="M 163.76 30.759375  L 173.502857 30.759375  L 173.502857 30.759375  L 163.76 30.759375  z " style="fill:#fefebb;stroke:#444443;stroke-linejoin:miter;stroke-width:0.5;" />
   </g>
   <g id="patch_18">
    <path clip-path="url(#pefca78be97)" d="M 173.502857 30.759375  L 183.245714 30.759375  L 183.245714 30.759375  L 173.502857 30.759375  z " style="fill:#fefebb;stroke:#444443;stroke-linejoin:miter;stroke-width:0.5;" />
   </g>
   <g id="patch_19">
    <path clip-path="url(#pefca78be97)" d="M 183.245714 30.759375  L 192.988571 30.759375  L 192.988571 30.759375  L 183.245714 30.759375  z " style="fill:#fefebb;stroke:#444443;stroke-linejoin:miter;stroke-width:0.5;" />
   </g>
   <g id="patch_20">
    <path clip-path="url(#pefca78be97)" d="M 192.988571 30.759375  L 202.731429 30.759375  L 202.731429 30.759375  L 192.988571 30.759375  z " style="fill:#fefebb;stroke:#444443;stroke-linejoin:miter;stroke-width:0.5;" />
   </g>
   <g id="patch_21">
    <path clip-path="url(#pefca78be97)" d="M 27.36 3.039375  L 37.102857 3.039375  L 37.102857 3.039375  L 27.36 3.039375  z " style="fill:#d9e6f5;stroke:#444443;stroke-linejoin:miter;stroke-width:0.5;" />
   </g>
   <g id="patch_22">
    <path clip-path="url(#pefca78be97)" d="M 37.102857 30.759375  L 46.845714 30.759375  L 46.845714 30.759375  L 37.102857 30.759375  z " style="fill:#d9e6f5;stroke:#444443;stroke-linejoin:miter;stroke-width:0.5;" />
   </g>
   <g id="patch_23">
    <path clip-path="url(#pefca78be97)" d="M 46.845714 30.759375  L 56.588571 30.759375  L 56.588571 30.759375  L 46.845714 30.759375  z " style="fill:#d9e6f5;stroke:#444443;stroke-linejoin:miter;stroke-width:0.5;" />
   </g>
   <g id="patch_24">
    <path clip-path="url(#pefca78be97)" d="M 56.588571 30.759375  L 66.331429 30.759375  L 66.331429 30.759375  L 56.588571 30.759375  z " style="fill:#d9e6f5;stroke:#444443;stroke-linejoin:miter;stroke-width:0.5;" />
   </g>
   <g id="patch_25">
    <path clip-path="url(#pefca78be97)" d="M 66.331429 30.759375  L 76.074286 30.759375  L 76.074286 30.759375  L 66.331429 30.759375  z " style="fill:#d9e6f5;stroke:#444443;stroke-linejoin:miter;stroke-width:0.5;" />
   </g>
   <g id="patch_26">
    <path clip-path="url(#pefca78be97)" d="M 76.074286 30.759375  L 85.817143 30.759375  L 85.817143 30.759375  L 76.074286 30.759375  z " style="fill:#d9e6f5;stroke:#444443;stroke-linejoin:miter;stroke-width:0.5;" />
   </g>
   <g id="patch_27">
    <path clip-path="url(#pefca78be97)" d="M 85.817143 30.759375  L 95.56 30.759375  L 95.56 30.759375  L 85.817143 30.759375  z " style="fill:#d9e6f5;stroke:#444443;stroke-linejoin:miter;stroke-width:0.5;" />
   </g>
   <g id="patch_28">
    <path clip-path="url(#pefca78be97)" d="M 95.56 30.759375  L 105.302857 30.759375  L 105.302857 30.759375  L 95.56 30.759375  z " style="fill:#d9e6f5;stroke:#444443;stroke-linejoin:miter;stroke-width:0.5;" />
   </g>
   <g id="patch_29">
    <path clip-path="url(#pefca78be97)" d="M 105.302857 30.759375  L 115.045714 30.759375  L 115.045714 30.759375  L 105.302857 30.759375  z " style="fill:#d9e6f5;stroke:#444443;stroke-linejoin:miter;stroke-width:0.5;" />
   </g>
   <g id="patch_30">
    <path clip-path="url(#pefca78be97)" d="M 115.045714 30.759375  L 124.788571 30.759375  L 124.788571 30.759375  L 115.045714 30.759375  z " style="fill:#d9e6f5;stroke:#444443;stroke-linejoin:miter;stroke-width:0.5;" />
   </g>
   <g id="patch_31">
    <path clip-path="url(#pefca78be97)" d="M 124.788571 30.759375  L 134.531429 30.759375  L 134.531429 30.759375  L 124.788571 30.759375  z " style="fill:#d9e6f5;stroke:#444443;stroke-linejoin:miter;stroke-width:0.5;" />
   </g>
   <g id="patch_32">
    <path clip-path="url(#pefca78be97)" d="M 134.531429 30.759375  L 144.274286 30.759375  L 144.274286 30.759375  L 134.531429 30.759375  z " style="fill:#d9e6f5;stroke:#444443;stroke-linejoin:miter;stroke-width:0.5;" />
   </g>
   <g id="patch_33">
    <path clip-path="url(#pefca78be97)" d="M 144.274286 30.759375  L 154.017143 30.759375  L 154.017143 30.759375  L 144.274286 30.759375  z " style="fill:#d9e6f5;stroke:#444443;stroke-linejoin:miter;stroke-width:0.5;" />
   </g>
   <g id="patch_34">
    <path clip-path="url(#pefca78be97)" d="M 154.017143 30.759375  L 163.76 30.759375  L 163.76 30.759375  L 154.017143 30.759375  z " style="fill:#d9e6f5;stroke:#444443;stroke-linejoin:miter;stroke-width:0.5;" />
   </g>
   <g id="patch_35">
    <path clip-path="url(#pefca78be97)" d="M 163.76 30.759375  L 173.502857 30.759375  L 173.502857 30.759375  L 163.76 30.759375  z " style="fill:#d9e6f5;stroke:#444443;stroke-linejoin:miter;stroke-width:0.5;" />
   </g>
   <g id="patch_36">
    <path clip-path="url(#pefca78be97)" d="M 173.502857 30.759375  L 183.245714 30.759375  L 183.245714 30.759375  L 173.502857 30.759375  z " style="fill:#d9e6f5;stroke:#444443;stroke-linejoin:miter;stroke-width:0.5;" />
   </g>
   <g id="patch_37">
    <path clip-path="url(#pefca78be97)" d="M 183.245714 30.759375  L 192.988571 30.759375  L 192.988571 30.759375  L 183.245714 30.759375  z " style="fill:#d9e6f5;stroke:#444443;stroke-linejoin:miter;stroke-width:0.5;" />
   </g>
   <g id="patch_38">
    <path clip-path="url(#pefca78be97)" d="M 192.988571 30.759375  L 202.731429 30.759375  L 202.731429 30.759375  L 192.988571 30.759375  z " style="fill:#d9e6f5;stroke:#444443;stroke-linejoin:miter;stroke-width:0.5;" />
   </g>
   <g id="patch_39">
    <path clip-path="url(#pefca78be97)" d="M 27.36 3.039375  L 37.102857 3.039375  L 37.102857 3.039375  L 27.36 3.039375  z " style="fill:#a1dab4;stroke:#444443;stroke-linejoin:miter;stroke-width:0.5;" />
   </g>
   <g id="patch_40">
    <path clip-path="url(#pefca78be97)" d="M 37.102857 30.759375  L 46.845714 30.759375  L 46.845714 30.759375  L 37.102857 30.759375  z " style="fill:#a1dab4;stroke:#444443;stroke-linejoin:miter;stroke-width:0.5;" />
   </g>
   <g id="patch_41">
    <path clip-path="url(#pefca78be97)" d="M 46.845714 30.759375  L 56.588571 30.759375  L 56.588571 30.759375  L 46.845714 30.759375  z " style="fill:#a1dab4;stroke:#444443;stroke-linejoin:miter;stroke-width:0.5;" />
   </g>
   <g id="patch_42">
    <path clip-path="url(#pefca78be97)" d="M 56.588571 30.759375  L 66.331429 30.759375  L 66.331429 30.759375  L 56.588571 30.759375  z " style="fill:#a1dab4;stroke:#444443;stroke-linejoin:miter;stroke-width:0.5;" />
   </g>
   <g id="patch_43">
    <path clip-path="url(#pefca78be97)" d="M 66.331429 30.759375  L 76.074286 30.759375  L 76.074286 30.759375  L 66.331429 30.759375  z " style="fill:#a1dab4;stroke:#444443;stroke-linejoin:miter;stroke-width:0.5;" />
   </g>
   <g id="patch_44">
    <path clip-path="url(#pefca78be97)" d="M 76.074286 30.759375  L 85.817143 30.759375  L 85.817143 30.759375  L 76.074286 30.759375  z " style="fill:#a1dab4;stroke:#444443;stroke-linejoin:miter;stroke-width:0.5;" />
   </g>
   <g id="patch_45">
    <path clip-path="url(#pefca78be97)" d="M 85.817143 30.759375  L 95.56 30.759375  L 95.56 30.759375  L 85.817143 30.759375  z " style="fill:#a1dab4;stroke:#444443;stroke-linejoin:miter;stroke-width:0.5;" />
   </g>
   <g id="patch_46">
    <path clip-path="url(#pefca78be97)" d="M 95.56 30.759375  L 105.302857 30.759375  L 105.302857 30.759375  L 95.56 30.759375  z " style="fill:#a1dab4;stroke:#444443;stroke-linejoin:miter;stroke-width:0.5;" />
   </g>
   <g id="patch_47">
    <path clip-path="url(#pefca78be97)" d="M 105.302857 30.759375  L 115.045714 30.759375  L 115.045714 30.759375  L 105.302857 30.759375  z " style="fill:#a1dab4;stroke:#444443;stroke-linejoin:miter;stroke-width:0.5;" />
   </g>
   <g id="patch_48">
    <path clip-path="url(#pefca78be97)" d="M 115.045714 30.759375  L 124.788571 30.759375  L 124.788571 30.759375  L 115.045714 30.759375  z " style="fill:#a1dab4;stroke:#444443;stroke-linejoin:miter;stroke-width:0.5;" />
   </g>
   <g id="patch_49">
    <path clip-path="url(#pefca78be97)" d="M 124.788571 30.759375  L 134.531429 30.759375  L 134.531429 30.759375  L 124.788571 30.759375  z " style="fill:#a1dab4;stroke:#444443;stroke-linejoin:miter;stroke-width:0.5;" />
   </g>
   <g id="patch_50">
    <path clip-path="url(#pefca78be97)" d="M 134.531429 30.759375  L 144.274286 30.759375  L 144.274286 30.759375  L 134.531429 30.759375  z " style="fill:#a1dab4;stroke:#444443;stroke-linejoin:miter;stroke-width:0.5;" />
   </g>
   <g id="patch_51">
    <path clip-path="url(#pefca78be97)" d="M 144.274286 30.759375  L 154.017143 30.759375  L 154.017143 30.759375  L 144.274286 30.759375  z " style="fill:#a1dab4;stroke:#444443;stroke-linejoin:miter;stroke-width:0.5;" />
   </g>
   <g id="patch_52">
    <path clip-path="url(#pefca78be97)" d="M 154.017143 30.759375  L 163.76 30.759375  L 163.76 30.759375  L 154.017143 30.759375  z " style="fill:#a1dab4;stroke:#444443;stroke-linejoin:miter;stroke-width:0.5;" />
   </g>
   <g id="patch_53">
    <path clip-path="url(#pefca78be97)" d="M 163.76 30.759375  L 173.502857 30.759375  L 173.502857 30.759375  L 163.76 30.759375  z " style="fill:#a1dab4;stroke:#444443;stroke-linejoin:miter;stroke-width:0.5;" />
   </g>
   <g id="patch_54">
    <path clip-path="url(#pefca78be97)" d="M 173.502857 30.759375  L 183.245714 30.759375  L 183.245714 30.759375  L 173.502857 30.759375  z " style="fill:#a1dab4;stroke:#444443;stroke-linejoin:miter;stroke-width:0.5;" />
   </g>
   <g id="patch_55">
    <path clip-path="url(#pefca78be97)" d="M 183.245714 30.759375  L 192.988571 30.759375  L 192.988571 30.759375  L 183.245714 30.759375  z " style="fill:#a1dab4;stroke:#444443;stroke-linejoin:miter;stroke-width:0.5;" />
   </g>
   <g id="patch_56">
    <path clip-path="url(#pefca78be97)" d="M 192.988571 30.759375  L 202.731429 30.759375  L 202.731429 29.904499  L 192.988571 29.904499  z " style="fill:#a1dab4;stroke:#444443;stroke-linejoin:miter;stroke-width:0.5;" />
   </g>
   <g id="patch_57">
    <path d="M 115.045714 31.590975  L 111.731194 39.075375  L 118.360234 39.075375  z " style="fill:#444443;" />
   </g>
   <g id="patch_58">
    <path d="M 27.36 30.759375  L 27.36 3.039375  " style="fill:none;stroke:#ffffff;stroke-linecap:square;stroke-linejoin:miter;stroke-width:0.3;" />
   </g>
   <g id="patch_59">
    <path d="M 27.36 30.759375  L 211.5 30.759375  " style="fill:none;stroke:#ffffff;stroke-linecap:square;stroke-linejoin:miter;stroke-width:0.3;" />
   </g>
   <g id="text_6">
    
    <defs>
     <path d="M 10.6875 12.40625  L 21 12.40625  L 21 0  L 10.6875 0  z " id="DejaVuSans-46" />
    </defs>
    <g style="fill:#444443;" transform="translate(106.139464 47.391375)scale(0.08 -0.08)">
     <use xlink:href="#DejaVuSans-48" />
     <use x="63.623047" xlink:href="#DejaVuSans-46" />
     <use x="95.410156" xlink:href="#DejaVuSans-53" />
     <use x="159.033203" xlink:href="#DejaVuSans-48" />
    </g>
   </g>
  </g>
 </g>
 <defs>
  <clipPath id="pefca78be97">
   <rect height="27.72" width="184.14" x="27.36" y="3.039375" />
  </clipPath>
 </defs>
</svg></g>

<g class="node" id="node3"><title>leaf2</title>
<polygon fill="none" points="88.5,-45 50.5,-45 50.5,-0 88.5,-0 88.5,-45" stroke="black" stroke-width="0" />
<svg height="37px" preserveAspectRatio="xMinYMin meet" version="1.1" viewBox="0 0 39.224504 49.024265" width="30px" x="54.5" y="-40.5">
 <defs>
  <style type="text/css">
*{stroke-linecap:butt;stroke-linejoin:round;}
  </style>
 </defs>
 <g id="figure_1">
  <g id="patch_1">
   <path d="M 0 49.024265  L 39.224504 49.024265  L 39.224504 0  L 0 0  z " style="fill:#ffffff;" />
  </g>
  <g id="axes_1">
   <g id="patch_2">
    <path d="M 39.224504 19.612252  C 39.224504 17.036794 38.717195 14.48638 37.73161 12.106968  C 36.746025 9.727556 35.301331 7.565419 33.480208 5.744296  C 31.659085 3.923172 29.496948 2.478479 27.117536 1.492894  C 24.738123 0.507309 22.187709 0 19.612252 0  C 17.036794 0 14.48638 0.507309 12.106968 1.492894  C 9.727556 2.478479 7.565419 3.923172 5.744296 5.744296  C 3.923172 7.565419 2.478479 9.727556 1.492894 12.106968  C 0.507309 14.48638 0 17.036794 0 19.612252  C 0 22.187709 0.507309 24.738123 1.492894 27.117536  C 2.478479 29.496948 3.923172 31.659085 5.744296 33.480208  C 7.565419 35.301331 9.727556 36.746025 12.106968 37.73161  C 14.48638 38.717195 17.036794 39.224504 19.612252 39.224504  C 22.187709 39.224504 24.738123 38.717195 27.117536 37.73161  C 29.496948 36.746025 31.659085 35.301331 33.480208 33.480208  C 35.301331 31.659085 36.746025 29.496948 37.73161 27.117536  C 38.717195 24.738123 39.224504 22.187709 39.224504 19.612252  M 19.612252 19.612252  M 39.224504 19.612252  z " style="fill:#fefebb;stroke:#444443;stroke-linejoin:miter;stroke-width:0.5;" />
   </g>
   <g id="text_1">
    
    <defs>
     <path d="M 6.59375 0  L 6.59375 51.859375  L 14.5 51.859375  L 14.5 44.484375  Q 20.21875 53.03125 31 53.03125  Q 35.6875 53.03125 39.625 51.34375  Q 43.5625 49.65625 45.515625 46.921875  Q 47.46875 44.1875 48.25 40.4375  Q 48.734375 37.984375 48.734375 31.890625  L 48.734375 0  L 39.9375 0  L 39.9375 31.546875  Q 39.9375 36.921875 38.90625 39.578125  Q 37.890625 42.234375 35.28125 43.8125  Q 32.671875 45.40625 29.15625 45.40625  Q 23.53125 45.40625 19.453125 41.84375  Q 15.375 38.28125 15.375 28.328125  L 15.375 0  z " id="ArialMT-110" />
     <path d="M 52.828125 42.09375  L 5.5625 42.09375  L 5.5625 50.296875  L 52.828125 50.296875  z M 52.828125 20.359375  L 5.5625 20.359375  L 5.5625 28.5625  L 52.828125 28.5625  z " id="ArialMT-61" />
     <path d="M 4.203125 18.890625  L 12.984375 20.0625  Q 14.5 12.59375 18.140625 9.296875  Q 21.78125 6 27 6  Q 33.203125 6 37.46875 10.296875  Q 41.75 14.59375 41.75 20.953125  Q 41.75 27 37.796875 30.921875  Q 33.84375 34.859375 27.734375 34.859375  Q 25.25 34.859375 21.53125 33.890625  L 22.515625 41.609375  Q 23.390625 41.5 23.921875 41.5  Q 29.546875 41.5 34.03125 44.421875  Q 38.53125 47.359375 38.53125 53.46875  Q 38.53125 58.296875 35.25 61.46875  Q 31.984375 64.65625 26.8125 64.65625  Q 21.6875 64.65625 18.265625 61.421875  Q 14.84375 58.203125 13.875 51.765625  L 5.078125 53.328125  Q 6.6875 62.15625 12.390625 67.015625  Q 18.109375 71.875 26.609375 71.875  Q 32.46875 71.875 37.390625 69.359375  Q 42.328125 66.84375 44.9375 62.5  Q 47.5625 58.15625 47.5625 53.265625  Q 47.5625 48.640625 45.0625 44.828125  Q 42.578125 41.015625 37.703125 38.765625  Q 44.046875 37.3125 47.5625 32.6875  Q 51.078125 28.078125 51.078125 21.140625  Q 51.078125 11.765625 44.234375 5.25  Q 37.40625 -1.265625 26.953125 -1.265625  Q 17.53125 -1.265625 11.296875 4.34375  Q 5.078125 9.96875 4.203125 18.890625  z " id="ArialMT-51" />
     <path d="M 50.34375 8.453125  L 50.34375 0  L 3.03125 0  Q 2.9375 3.171875 4.046875 6.109375  Q 5.859375 10.9375 9.828125 15.625  Q 13.8125 20.3125 21.34375 26.46875  Q 33.015625 36.03125 37.109375 41.625  Q 41.21875 47.21875 41.21875 52.203125  Q 41.21875 57.421875 37.46875 61  Q 33.734375 64.59375 27.734375 64.59375  Q 21.390625 64.59375 17.578125 60.78125  Q 13.765625 56.984375 13.71875 50.25  L 4.6875 51.171875  Q 5.609375 61.28125 11.65625 66.578125  Q 17.71875 71.875 27.9375 71.875  Q 38.234375 71.875 44.234375 66.15625  Q 50.25 60.453125 50.25 52  Q 50.25 47.703125 48.484375 43.546875  Q 46.734375 39.40625 42.65625 34.8125  Q 38.578125 30.21875 29.109375 22.21875  Q 21.1875 15.578125 18.9375 13.203125  Q 16.703125 10.84375 15.234375 8.453125  z " id="ArialMT-50" />
     <path d="M 4.734375 62.203125  L 4.734375 70.65625  L 51.078125 70.65625  L 51.078125 63.8125  Q 44.234375 56.546875 37.515625 44.484375  Q 30.8125 32.421875 27.15625 19.671875  Q 24.515625 10.6875 23.78125 0  L 14.75 0  Q 14.890625 8.453125 18.0625 20.40625  Q 21.234375 32.375 27.171875 43.484375  Q 33.109375 54.59375 39.796875 62.203125  z " id="ArialMT-55" />
     <path d="M 4.15625 18.75  L 13.375 19.53125  Q 14.40625 12.796875 18.140625 9.390625  Q 21.875 6 27.15625 6  Q 33.5 6 37.890625 10.78125  Q 42.28125 15.578125 42.28125 23.484375  Q 42.28125 31 38.0625 35.34375  Q 33.84375 39.703125 27 39.703125  Q 22.75 39.703125 19.328125 37.765625  Q 15.921875 35.84375 13.96875 32.765625  L 5.71875 33.84375  L 12.640625 70.609375  L 48.25 70.609375  L 48.25 62.203125  L 19.671875 62.203125  L 15.828125 42.96875  Q 22.265625 47.46875 29.34375 47.46875  Q 38.71875 47.46875 45.15625 40.96875  Q 51.609375 34.46875 51.609375 24.265625  Q 51.609375 14.546875 45.953125 7.46875  Q 39.0625 -1.21875 27.15625 -1.21875  Q 17.390625 -1.21875 11.203125 4.25  Q 5.03125 9.71875 4.15625 18.75  z " id="ArialMT-53" />
    </defs>
    <g style="fill:#444443;" transform="translate(4.471861 47.235515)scale(0.09 -0.09)">
     <use xlink:href="#ArialMT-110" />
     <use x="55.615234" xlink:href="#ArialMT-61" />
     <use x="114.013672" xlink:href="#ArialMT-51" />
     <use x="169.628906" xlink:href="#ArialMT-50" />
     <use x="225.244141" xlink:href="#ArialMT-55" />
     <use x="280.859375" xlink:href="#ArialMT-53" />
    </g>
   </g>
  </g>
 </g>
</svg></g>

<g class="edge" id="edge1"><title>node1-&gt;leaf2</title>
<path d="M78.0471,-61.9622C77.1258,-57.8162 76.1669,-53.5009 75.2385,-49.3233" fill="none" stroke="#444443" stroke-width="0.3" />
<polygon fill="#444443" points="76.5574,-48.8041 74.3229,-45.2031 73.824,-49.4116 76.5574,-48.8041" stroke="#444443" stroke-width="0.3" />
</g>

<g class="node" id="node4"><title>leaf3</title>
<polygon fill="none" points="129,-32 102,-32 102,-13 129,-13 129,-32" stroke="black" stroke-width="0" />
<svg height="11px" preserveAspectRatio="xMinYMin meet" version="1.1" viewBox="0 0 25.275937 14.621251" width="19px" x="106.5" y="-27.5">
 <defs>
  <style type="text/css">
*{stroke-linecap:butt;stroke-linejoin:round;}
  </style>
 </defs>
 <g id="figure_1">
  <g id="patch_1">
   <path d="M 0 14.621251  L 25.275937 14.621251  L 25.275937 0  L 0 0  z " style="fill:#ffffff;" />
  </g>
  <g id="axes_1">
   <g id="patch_2">
    <path d="M 15.71031 3.072341  C 15.71031 2.668885 15.630838 2.269352 15.476442 1.896607  C 15.322046 1.523862 15.095729 1.185155 14.810442 0.899868  C 14.525156 0.614581 14.186448 0.388264 13.813703 0.233868  C 13.440958 0.079472 13.041425 0 12.637969 0  C 12.234513 0 11.834979 0.079472 11.462235 0.233868  C 11.08949 0.388264 10.750782 0.614581 10.465495 0.899868  C 10.180209 1.185155 9.953891 1.523862 9.799495 1.896607  C 9.645099 2.269352 9.565627 2.668885 9.565627 3.072341  C 9.565627 3.475798 9.645099 3.875331 9.799495 4.248076  C 9.953891 4.620821 10.180209 4.959528 10.465495 5.244815  C 10.750782 5.530101 11.08949 5.756419 11.462235 5.910815  C 11.834979 6.065211 12.234513 6.144683 12.637969 6.144683  C 13.041425 6.144683 13.440958 6.065211 13.813703 5.910815  C 14.186448 5.756419 14.525156 5.530101 14.810442 5.244815  C 15.095729 4.959528 15.322046 4.620821 15.476442 4.248076  C 15.630838 3.875331 15.71031 3.475798 15.71031 3.072341  M 12.637969 3.072341  M 15.71031 3.072341  z " style="fill:#a1dab4;stroke:#444443;stroke-linejoin:miter;stroke-width:0.5;" />
   </g>
   <g id="text_1">
    
    <defs>
     <path d="M 6.59375 0  L 6.59375 51.859375  L 14.5 51.859375  L 14.5 44.484375  Q 20.21875 53.03125 31 53.03125  Q 35.6875 53.03125 39.625 51.34375  Q 43.5625 49.65625 45.515625 46.921875  Q 47.46875 44.1875 48.25 40.4375  Q 48.734375 37.984375 48.734375 31.890625  L 48.734375 0  L 39.9375 0  L 39.9375 31.546875  Q 39.9375 36.921875 38.90625 39.578125  Q 37.890625 42.234375 35.28125 43.8125  Q 32.671875 45.40625 29.15625 45.40625  Q 23.53125 45.40625 19.453125 41.84375  Q 15.375 38.28125 15.375 28.328125  L 15.375 0  z " id="ArialMT-110" />
     <path d="M 52.828125 42.09375  L 5.5625 42.09375  L 5.5625 50.296875  L 52.828125 50.296875  z M 52.828125 20.359375  L 5.5625 20.359375  L 5.5625 28.5625  L 52.828125 28.5625  z " id="ArialMT-61" />
     <path d="M 37.25 0  L 28.46875 0  L 28.46875 56  Q 25.296875 52.984375 20.140625 49.953125  Q 14.984375 46.921875 10.890625 45.40625  L 10.890625 53.90625  Q 18.265625 57.375 23.78125 62.296875  Q 29.296875 67.234375 31.59375 71.875  L 37.25 71.875  z " id="ArialMT-49" />
     <path d="M 4.15625 35.296875  Q 4.15625 48 6.765625 55.734375  Q 9.375 63.484375 14.515625 67.671875  Q 19.671875 71.875 27.484375 71.875  Q 33.25 71.875 37.59375 69.546875  Q 41.9375 67.234375 44.765625 62.859375  Q 47.609375 58.5 49.21875 52.21875  Q 50.828125 45.953125 50.828125 35.296875  Q 50.828125 22.703125 48.234375 14.96875  Q 45.65625 7.234375 40.5 3  Q 35.359375 -1.21875 27.484375 -1.21875  Q 17.140625 -1.21875 11.234375 6.203125  Q 4.15625 15.140625 4.15625 35.296875  z M 13.1875 35.296875  Q 13.1875 17.671875 17.3125 11.828125  Q 21.4375 6 27.484375 6  Q 33.546875 6 37.671875 11.859375  Q 41.796875 17.71875 41.796875 35.296875  Q 41.796875 52.984375 37.671875 58.78125  Q 33.546875 64.59375 27.390625 64.59375  Q 21.34375 64.59375 17.71875 59.46875  Q 13.1875 52.9375 13.1875 35.296875  z " id="ArialMT-48" />
    </defs>
    <g style="fill:#444443;" transform="translate(0 12.832501)scale(0.09 -0.09)">
     <use xlink:href="#ArialMT-110" />
     <use x="55.615234" xlink:href="#ArialMT-61" />
     <use x="114.013672" xlink:href="#ArialMT-49" />
     <use x="169.628906" xlink:href="#ArialMT-48" />
     <use x="225.244141" xlink:href="#ArialMT-49" />
    </g>
   </g>
  </g>
 </g>
</svg></g>

<g class="edge" id="edge2"><title>node1-&gt;leaf3</title>
<path d="M95.9637,-61.9622C100.465,-53.1002 105.359,-43.4644 109.123,-36.0542" fill="none" stroke="#444443" stroke-width="0.3" />
<polygon fill="#444443" points="110.525,-36.3858 111.088,-32.1855 108.029,-35.1178 110.525,-36.3858" stroke="#444443" stroke-width="0.3" />
</g>

<g class="node" id="node5"><title>leaf4</title>
<polygon fill="none" points="208,-100.5 181,-100.5 181,-74.5 208,-74.5 208,-100.5" stroke="black" stroke-width="0" />
<svg height="18px" preserveAspectRatio="xMinYMin meet" version="1.1" viewBox="0 0 25.275937 24.793858" width="19px" x="185.5" y="-96.5">
 <defs>
  <style type="text/css">
*{stroke-linecap:butt;stroke-linejoin:round;}
  </style>
 </defs>
 <g id="figure_1">
  <g id="patch_1">
   <path d="M 0 24.793858  L 25.275937 24.793858  L 25.275937 0  L 0 0  z " style="fill:#ffffff;" />
  </g>
  <g id="axes_1">
   <g id="patch_2">
    <path d="M 20.600987 7.963018  C 20.600987 6.917324 20.395008 5.881798 19.994838 4.915703  C 19.594668 3.949608 19.00809 3.071731 18.268673 2.332314  C 17.529255 1.592897 16.651379 1.006318 15.685284 0.606149  C 14.719189 0.205979 13.683663 0 12.637969 0  C 11.592275 0 10.556749 0.205979 9.590654 0.606149  C 8.624559 1.006318 7.746682 1.592897 7.007265 2.332314  C 6.267848 3.071731 5.681269 3.949608 5.2811 4.915703  C 4.88093 5.881798 4.674951 6.917324 4.674951 7.963018  C 4.674951 9.008712 4.88093 10.044238 5.2811 11.010333  C 5.681269 11.976428 6.267848 12.854304 7.007265 13.593722  C 7.746682 14.333139 8.624559 14.919717 9.590654 15.319887  C 10.556749 15.720057 11.592275 15.926036 12.637969 15.926036  C 13.683663 15.926036 14.719189 15.720057 15.685284 15.319887  C 16.651379 14.919717 17.529255 14.333139 18.268673 13.593722  C 19.00809 12.854304 19.594668 11.976428 19.994838 11.010333  C 20.395008 10.044238 20.600987 9.008712 20.600987 7.963018  M 12.637969 7.963018  M 20.600987 7.963018  z " style="fill:#d9e6f5;stroke:#444443;stroke-linejoin:miter;stroke-width:0.5;" />
   </g>
   <g id="text_1">
    
    <defs>
     <path d="M 6.59375 0  L 6.59375 51.859375  L 14.5 51.859375  L 14.5 44.484375  Q 20.21875 53.03125 31 53.03125  Q 35.6875 53.03125 39.625 51.34375  Q 43.5625 49.65625 45.515625 46.921875  Q 47.46875 44.1875 48.25 40.4375  Q 48.734375 37.984375 48.734375 31.890625  L 48.734375 0  L 39.9375 0  L 39.9375 31.546875  Q 39.9375 36.921875 38.90625 39.578125  Q 37.890625 42.234375 35.28125 43.8125  Q 32.671875 45.40625 29.15625 45.40625  Q 23.53125 45.40625 19.453125 41.84375  Q 15.375 38.28125 15.375 28.328125  L 15.375 0  z " id="ArialMT-110" />
     <path d="M 52.828125 42.09375  L 5.5625 42.09375  L 5.5625 50.296875  L 52.828125 50.296875  z M 52.828125 20.359375  L 5.5625 20.359375  L 5.5625 28.5625  L 52.828125 28.5625  z " id="ArialMT-61" />
     <path d="M 32.328125 0  L 32.328125 17.140625  L 1.265625 17.140625  L 1.265625 25.203125  L 33.9375 71.578125  L 41.109375 71.578125  L 41.109375 25.203125  L 50.78125 25.203125  L 50.78125 17.140625  L 41.109375 17.140625  L 41.109375 0  z M 32.328125 25.203125  L 32.328125 57.46875  L 9.90625 25.203125  z " id="ArialMT-52" />
     <path d="M 17.671875 38.8125  Q 12.203125 40.828125 9.5625 44.53125  Q 6.9375 48.25 6.9375 53.421875  Q 6.9375 61.234375 12.546875 66.546875  Q 18.171875 71.875 27.484375 71.875  Q 36.859375 71.875 42.578125 66.421875  Q 48.296875 60.984375 48.296875 53.171875  Q 48.296875 48.1875 45.671875 44.5  Q 43.0625 40.828125 37.75 38.8125  Q 44.34375 36.671875 47.78125 31.875  Q 51.21875 27.09375 51.21875 20.453125  Q 51.21875 11.28125 44.71875 5.03125  Q 38.234375 -1.21875 27.640625 -1.21875  Q 17.046875 -1.21875 10.546875 5.046875  Q 4.046875 11.328125 4.046875 20.703125  Q 4.046875 27.6875 7.59375 32.390625  Q 11.140625 37.109375 17.671875 38.8125  z M 15.921875 53.71875  Q 15.921875 48.640625 19.1875 45.40625  Q 22.46875 42.1875 27.6875 42.1875  Q 32.765625 42.1875 36.015625 45.375  Q 39.265625 48.578125 39.265625 53.21875  Q 39.265625 58.0625 35.90625 61.359375  Q 32.5625 64.65625 27.59375 64.65625  Q 22.5625 64.65625 19.234375 61.421875  Q 15.921875 58.203125 15.921875 53.71875  z M 13.09375 20.65625  Q 13.09375 16.890625 14.875 13.375  Q 16.65625 9.859375 20.171875 7.921875  Q 23.6875 6 27.734375 6  Q 34.03125 6 38.125 10.046875  Q 42.234375 14.109375 42.234375 20.359375  Q 42.234375 26.703125 38.015625 30.859375  Q 33.796875 35.015625 27.4375 35.015625  Q 21.234375 35.015625 17.15625 30.90625  Q 13.09375 26.8125 13.09375 20.65625  z " id="ArialMT-56" />
    </defs>
    <g style="fill:#444443;" transform="translate(0 23.005108)scale(0.09 -0.09)">
     <use xlink:href="#ArialMT-110" />
     <use x="55.615234" xlink:href="#ArialMT-61" />
     <use x="114.013672" xlink:href="#ArialMT-52" />
     <use x="169.628906" xlink:href="#ArialMT-56" />
     <use x="225.244141" xlink:href="#ArialMT-52" />
    </g>
   </g>
  </g>
 </g>
</svg></g>


<g class="node" id="node2"><title>node0</title>
<svg height="83px" preserveAspectRatio="xMinYMin meet" version="1.1" viewBox="0 0 211.5 110.248594" width="159px" x="36.5" y="-230.5">
 <defs>
  <style type="text/css">
*{stroke-linecap:butt;stroke-linejoin:round;}
  </style>
 </defs>
 <g id="figure_1">
  <g id="patch_1">
   <path d="M 0 110.248594  L 211.5 110.248594  L 211.5 0  L 0 0  z " style="fill:#ffffff;" />
  </g>
  <g id="axes_1">
   <g id="patch_2">
    <path d="M 27.36 83.16  L 211.5 83.16  L 211.5 -0  L 27.36 -0  z " style="fill:#e5e5e5;" />
   </g>
   <g id="matplotlib.axis_1">
    <g id="xtick_1">
     <g id="line2d_1">
      <path clip-path="url(#pfe8c29c467)" d="M 27.36 83.16  L 27.36 -0  " style="fill:none;stroke:#ffffff;stroke-linecap:square;stroke-width:0.8;" />
     </g>
     <g id="line2d_2">
      <defs>
       <path d="M 0 0  L 0 3.5  " id="m586f50c7d7" style="stroke:#555555;stroke-width:0.3;" />
      </defs>
      <g>
       <use style="fill:#555555;stroke:#555555;stroke-width:0.3;" x="27.36" y="83.16" xlink:href="#m586f50c7d7" />
      </g>
     </g>
     <g id="text_1">
      
      <defs>
       <path d="M 31.78125 66.40625  Q 24.171875 66.40625 20.328125 58.90625  Q 16.5 51.421875 16.5 36.375  Q 16.5 21.390625 20.328125 13.890625  Q 24.171875 6.390625 31.78125 6.390625  Q 39.453125 6.390625 43.28125 13.890625  Q 47.125 21.390625 47.125 36.375  Q 47.125 51.421875 43.28125 58.90625  Q 39.453125 66.40625 31.78125 66.40625  z M 31.78125 74.21875  Q 44.046875 74.21875 50.515625 64.515625  Q 56.984375 54.828125 56.984375 36.375  Q 56.984375 17.96875 50.515625 8.265625  Q 44.046875 -1.421875 31.78125 -1.421875  Q 19.53125 -1.421875 13.0625 8.265625  Q 6.59375 17.96875 6.59375 36.375  Q 6.59375 54.828125 13.0625 64.515625  Q 19.53125 74.21875 31.78125 74.21875  z " id="DejaVuSans-48" />
      </defs>
      <g style="fill:#444443;" transform="translate(24.815 96.23875)scale(0.08 -0.08)">
       <use xlink:href="#DejaVuSans-48" />
      </g>
     </g>
    </g>
    <g id="xtick_2">
     <g id="line2d_3">
      <path clip-path="url(#pfe8c29c467)" d="M 202.731429 83.16  L 202.731429 -0  " style="fill:none;stroke:#ffffff;stroke-linecap:square;stroke-width:0.8;" />
     </g>
     <g id="line2d_4">
      <g>
       <use style="fill:#555555;stroke:#555555;stroke-width:0.3;" x="202.731429" y="83.16" xlink:href="#m586f50c7d7" />
      </g>
     </g>
     <g id="text_2">
      
      <defs>
       <path d="M 12.40625 8.296875  L 28.515625 8.296875  L 28.515625 63.921875  L 10.984375 60.40625  L 10.984375 69.390625  L 28.421875 72.90625  L 38.28125 72.90625  L 38.28125 8.296875  L 54.390625 8.296875  L 54.390625 0  L 12.40625 0  z " id="DejaVuSans-49" />
      </defs>
      <g style="fill:#444443;" transform="translate(200.186429 96.23875)scale(0.08 -0.08)">
       <use xlink:href="#DejaVuSans-49" />
      </g>
     </g>
    </g>
    <g id="text_3">
     
     <defs>
      <path d="M 7.90625 0  L 7.90625 71.578125  L 59.671875 71.578125  L 59.671875 63.140625  L 17.390625 63.140625  L 17.390625 41.21875  L 56.984375 41.21875  L 56.984375 32.8125  L 17.390625 32.8125  L 17.390625 8.453125  L 61.328125 8.453125  L 61.328125 0  z " id="ArialMT-69" />
      <path d="M 7.328125 0  L 7.328125 71.578125  L 16.796875 71.578125  L 16.796875 36.078125  L 52.34375 71.578125  L 65.1875 71.578125  L 35.15625 42.578125  L 66.5 0  L 54 0  L 28.515625 36.234375  L 16.796875 24.8125  L 16.796875 0  z " id="ArialMT-75" />
      <path d="M 4.828125 34.859375  Q 4.828125 52.6875 14.390625 62.765625  Q 23.96875 72.859375 39.109375 72.859375  Q 49.03125 72.859375 56.984375 68.109375  Q 64.9375 63.375 69.109375 54.90625  Q 73.296875 46.4375 73.296875 35.6875  Q 73.296875 24.8125 68.890625 16.21875  Q 64.5 7.625 56.4375 3.203125  Q 48.390625 -1.21875 39.0625 -1.21875  Q 28.953125 -1.21875 20.984375 3.65625  Q 13.03125 8.546875 8.921875 16.984375  Q 4.828125 25.4375 4.828125 34.859375  z M 14.59375 34.71875  Q 14.59375 21.78125 21.546875 14.328125  Q 28.515625 6.890625 39.015625 6.890625  Q 49.703125 6.890625 56.609375 14.40625  Q 63.53125 21.921875 63.53125 35.75  Q 63.53125 44.484375 60.578125 51  Q 57.625 57.515625 51.921875 61.109375  Q 46.234375 64.703125 39.15625 64.703125  Q 29.109375 64.703125 21.84375 57.78125  Q 14.59375 50.875 14.59375 34.71875  z " id="ArialMT-79" />
      <path d="M 7.859375 0  L 7.859375 71.578125  L 39.59375 71.578125  Q 49.171875 71.578125 54.140625 69.640625  Q 59.125 67.71875 62.109375 62.828125  Q 65.09375 57.953125 65.09375 52.046875  Q 65.09375 44.4375 60.15625 39.203125  Q 55.21875 33.984375 44.921875 32.5625  Q 48.6875 30.765625 50.640625 29  Q 54.78125 25.203125 58.5 19.484375  L 70.953125 0  L 59.03125 0  L 49.5625 14.890625  Q 45.40625 21.34375 42.71875 24.75  Q 40.046875 28.171875 37.921875 29.53125  Q 35.796875 30.90625 33.59375 31.453125  Q 31.984375 31.78125 28.328125 31.78125  L 17.328125 31.78125  L 17.328125 0  z M 17.328125 39.984375  L 37.703125 39.984375  Q 44.1875 39.984375 47.84375 41.328125  Q 51.515625 42.671875 53.421875 45.625  Q 55.328125 48.578125 55.328125 52.046875  Q 55.328125 57.125 51.640625 60.390625  Q 47.953125 63.671875 39.984375 63.671875  L 17.328125 63.671875  z " id="ArialMT-82" />
      <path d="M 41.21875 28.078125  L 41.21875 36.46875  L 71.53125 36.53125  L 71.53125 9.96875  Q 64.546875 4.390625 57.125 1.578125  Q 49.703125 -1.21875 41.890625 -1.21875  Q 31.34375 -1.21875 22.71875 3.296875  Q 14.109375 7.8125 9.71875 16.359375  Q 5.328125 24.90625 5.328125 35.453125  Q 5.328125 45.90625 9.6875 54.953125  Q 14.0625 64.015625 22.265625 68.40625  Q 30.46875 72.796875 41.15625 72.796875  Q 48.921875 72.796875 55.1875 70.28125  Q 61.46875 67.78125 65.03125 63.28125  Q 68.609375 58.796875 70.453125 51.5625  L 61.921875 49.21875  Q 60.296875 54.6875 57.90625 57.8125  Q 55.515625 60.9375 51.0625 62.8125  Q 46.625 64.703125 41.21875 64.703125  Q 34.71875 64.703125 29.984375 62.71875  Q 25.25 60.75 22.34375 57.515625  Q 19.4375 54.296875 17.828125 50.4375  Q 15.09375 43.796875 15.09375 36.03125  Q 15.09375 26.46875 18.390625 20.015625  Q 21.6875 13.578125 27.984375 10.453125  Q 34.28125 7.328125 41.359375 7.328125  Q 47.515625 7.328125 53.375 9.6875  Q 59.234375 12.0625 62.25 14.75  L 62.25 28.078125  z " id="ArialMT-71" />
      <path d="M -1.515625 -19.875  L -1.515625 -13.53125  L 56.734375 -13.53125  L 56.734375 -19.875  z " id="ArialMT-95" />
      <path d="M 54.6875 71.578125  L 64.15625 71.578125  L 64.15625 30.21875  Q 64.15625 19.4375 61.71875 13.078125  Q 59.28125 6.734375 52.90625 2.75  Q 46.53125 -1.21875 36.1875 -1.21875  Q 26.125 -1.21875 19.71875 2.25  Q 13.328125 5.71875 10.59375 12.28125  Q 7.859375 18.84375 7.859375 30.21875  L 7.859375 71.578125  L 17.328125 71.578125  L 17.328125 30.28125  Q 17.328125 20.953125 19.0625 16.53125  Q 20.796875 12.109375 25.015625 9.71875  Q 29.25 7.328125 35.359375 7.328125  Q 45.796875 7.328125 50.234375 12.0625  Q 54.6875 16.796875 54.6875 30.28125  z " id="ArialMT-85" />
      <path d="M 4.5 23  L 13.421875 23.78125  Q 14.0625 18.40625 16.375 14.96875  Q 18.703125 11.53125 23.578125 9.40625  Q 28.46875 7.28125 34.578125 7.28125  Q 39.984375 7.28125 44.140625 8.890625  Q 48.296875 10.5 50.3125 13.296875  Q 52.34375 16.109375 52.34375 19.4375  Q 52.34375 22.796875 50.390625 25.3125  Q 48.4375 27.828125 43.953125 29.546875  Q 41.0625 30.671875 31.203125 33.03125  Q 21.34375 35.40625 17.390625 37.5  Q 12.25 40.1875 9.734375 44.15625  Q 7.234375 48.140625 7.234375 53.078125  Q 7.234375 58.5 10.296875 63.203125  Q 13.375 67.921875 19.28125 70.359375  Q 25.203125 72.796875 32.421875 72.796875  Q 40.375 72.796875 46.453125 70.234375  Q 52.546875 67.671875 55.8125 62.6875  Q 59.078125 57.71875 59.328125 51.421875  L 50.25 50.734375  Q 49.515625 57.515625 45.28125 60.984375  Q 41.0625 64.453125 32.8125 64.453125  Q 24.21875 64.453125 20.28125 61.296875  Q 16.359375 58.15625 16.359375 53.71875  Q 16.359375 49.859375 19.140625 47.359375  Q 21.875 44.875 33.421875 42.265625  Q 44.96875 39.65625 49.265625 37.703125  Q 55.515625 34.8125 58.484375 30.390625  Q 61.46875 25.984375 61.46875 20.21875  Q 61.46875 14.5 58.203125 9.4375  Q 54.9375 4.390625 48.796875 1.578125  Q 42.671875 -1.21875 35.015625 -1.21875  Q 25.296875 -1.21875 18.71875 1.609375  Q 12.15625 4.4375 8.421875 10.125  Q 4.6875 15.828125 4.5 23  z " id="ArialMT-83" />
      <path d="M 4.15625 35.296875  Q 4.15625 48 6.765625 55.734375  Q 9.375 63.484375 14.515625 67.671875  Q 19.671875 71.875 27.484375 71.875  Q 33.25 71.875 37.59375 69.546875  Q 41.9375 67.234375 44.765625 62.859375  Q 47.609375 58.5 49.21875 52.21875  Q 50.828125 45.953125 50.828125 35.296875  Q 50.828125 22.703125 48.234375 14.96875  Q 45.65625 7.234375 40.5 3  Q 35.359375 -1.21875 27.484375 -1.21875  Q 17.140625 -1.21875 11.234375 6.203125  Q 4.15625 15.140625 4.15625 35.296875  z M 13.1875 35.296875  Q 13.1875 17.671875 17.3125 11.828125  Q 21.4375 6 27.484375 6  Q 33.546875 6 37.671875 11.859375  Q 41.796875 17.71875 41.796875 35.296875  Q 41.796875 52.984375 37.671875 58.78125  Q 33.546875 64.59375 27.390625 64.59375  Q 21.34375 64.59375 17.71875 59.46875  Q 13.1875 52.9375 13.1875 35.296875  z " id="ArialMT-48" />
      <path d="M 37.25 0  L 28.46875 0  L 28.46875 56  Q 25.296875 52.984375 20.140625 49.953125  Q 14.984375 46.921875 10.890625 45.40625  L 10.890625 53.90625  Q 18.265625 57.375 23.78125 62.296875  Q 29.296875 67.234375 31.59375 71.875  L 37.25 71.875  z " id="ArialMT-49" />
     </defs>
     <g style="fill:#444443;" transform="translate(89.417812 108.459844)scale(0.09 -0.09)">
      <use xlink:href="#ArialMT-69" />
      <use x="66.699219" xlink:href="#ArialMT-75" />
      <use x="133.398438" xlink:href="#ArialMT-79" />
      <use x="211.181641" xlink:href="#ArialMT-82" />
      <use x="283.398438" xlink:href="#ArialMT-71" />
      <use x="361.181641" xlink:href="#ArialMT-95" />
      <use x="416.796875" xlink:href="#ArialMT-85" />
      <use x="489.013672" xlink:href="#ArialMT-83" />
      <use x="555.712891" xlink:href="#ArialMT-48" />
      <use x="611.328125" xlink:href="#ArialMT-49" />
     </g>
    </g>
   </g>
   <g id="matplotlib.axis_2">
    <g id="ytick_1">
     <g id="line2d_5">
      <path clip-path="url(#pfe8c29c467)" d="M 27.36 83.16  L 211.5 83.16  " style="fill:none;stroke:#ffffff;stroke-linecap:square;stroke-width:0.8;" />
     </g>
     <g id="line2d_6">
      <defs>
       <path d="M 0 0  L -3.5 0  " id="m78a859a00f" style="stroke:#555555;stroke-width:0.3;" />
      </defs>
      <g>
       <use style="fill:#555555;stroke:#555555;stroke-width:0.3;" x="27.36" y="83.16" xlink:href="#m78a859a00f" />
      </g>
     </g>
     <g id="text_4">
      
      <g style="fill:#444443;" transform="translate(15.27 86.199375)scale(0.08 -0.08)">
       <use xlink:href="#DejaVuSans-48" />
      </g>
     </g>
    </g>
    <g id="ytick_2">
     <g id="line2d_7">
      <path clip-path="url(#pfe8c29c467)" d="M 27.36 3.96  L 211.5 3.96  " style="fill:none;stroke:#ffffff;stroke-linecap:square;stroke-width:0.8;" />
     </g>
     <g id="line2d_8">
      <g>
       <use style="fill:#555555;stroke:#555555;stroke-width:0.3;" x="27.36" y="3.96" xlink:href="#m78a859a00f" />
      </g>
     </g>
     <g id="text_5">
      
      <defs>
       <path d="M 40.578125 39.3125  Q 47.65625 37.796875 51.625 33  Q 55.609375 28.21875 55.609375 21.1875  Q 55.609375 10.40625 48.1875 4.484375  Q 40.765625 -1.421875 27.09375 -1.421875  Q 22.515625 -1.421875 17.65625 -0.515625  Q 12.796875 0.390625 7.625 2.203125  L 7.625 11.71875  Q 11.71875 9.328125 16.59375 8.109375  Q 21.484375 6.890625 26.8125 6.890625  Q 36.078125 6.890625 40.9375 10.546875  Q 45.796875 14.203125 45.796875 21.1875  Q 45.796875 27.640625 41.28125 31.265625  Q 36.765625 34.90625 28.71875 34.90625  L 20.21875 34.90625  L 20.21875 43.015625  L 29.109375 43.015625  Q 36.375 43.015625 40.234375 45.921875  Q 44.09375 48.828125 44.09375 54.296875  Q 44.09375 59.90625 40.109375 62.90625  Q 36.140625 65.921875 28.71875 65.921875  Q 24.65625 65.921875 20.015625 65.03125  Q 15.375 64.15625 9.8125 62.3125  L 9.8125 71.09375  Q 15.4375 72.65625 20.34375 73.4375  Q 25.25 74.21875 29.59375 74.21875  Q 40.828125 74.21875 47.359375 69.109375  Q 53.90625 64.015625 53.90625 55.328125  Q 53.90625 49.265625 50.4375 45.09375  Q 46.96875 40.921875 40.578125 39.3125  z " id="DejaVuSans-51" />
       <path d="M 8.203125 72.90625  L 55.078125 72.90625  L 55.078125 68.703125  L 28.609375 0  L 18.3125 0  L 43.21875 64.59375  L 8.203125 64.59375  z " id="DejaVuSans-55" />
       <path d="M 33.015625 40.375  Q 26.375 40.375 22.484375 35.828125  Q 18.609375 31.296875 18.609375 23.390625  Q 18.609375 15.53125 22.484375 10.953125  Q 26.375 6.390625 33.015625 6.390625  Q 39.65625 6.390625 43.53125 10.953125  Q 47.40625 15.53125 47.40625 23.390625  Q 47.40625 31.296875 43.53125 35.828125  Q 39.65625 40.375 33.015625 40.375  z M 52.59375 71.296875  L 52.59375 62.3125  Q 48.875 64.0625 45.09375 64.984375  Q 41.3125 65.921875 37.59375 65.921875  Q 27.828125 65.921875 22.671875 59.328125  Q 17.53125 52.734375 16.796875 39.40625  Q 19.671875 43.65625 24.015625 45.921875  Q 28.375 48.1875 33.59375 48.1875  Q 44.578125 48.1875 50.953125 41.515625  Q 57.328125 34.859375 57.328125 23.390625  Q 57.328125 12.15625 50.6875 5.359375  Q 44.046875 -1.421875 33.015625 -1.421875  Q 20.359375 -1.421875 13.671875 8.265625  Q 6.984375 17.96875 6.984375 36.375  Q 6.984375 53.65625 15.1875 63.9375  Q 23.390625 74.21875 37.203125 74.21875  Q 40.921875 74.21875 44.703125 73.484375  Q 48.484375 72.75 52.59375 71.296875  z " id="DejaVuSans-54" />
      </defs>
      <g style="fill:#444443;" transform="translate(0 6.999375)scale(0.08 -0.08)">
       <use xlink:href="#DejaVuSans-51" />
       <use x="63.623047" xlink:href="#DejaVuSans-51" />
       <use x="127.246094" xlink:href="#DejaVuSans-55" />
       <use x="190.869141" xlink:href="#DejaVuSans-54" />
      </g>
     </g>
    </g>
   </g>
   <g id="patch_3">
    <path clip-path="url(#pfe8c29c467)" d="M 27.36 83.16  L 37.102857 83.16  L 37.102857 6.329431  L 27.36 6.329431  z " style="fill:#fefebb;stroke:#444443;stroke-linejoin:miter;stroke-width:0.5;" />
   </g>
   <g id="patch_4">
    <path clip-path="url(#pfe8c29c467)" d="M 37.102857 83.16  L 46.845714 83.16  L 46.845714 83.16  L 37.102857 83.16  z " style="fill:#fefebb;stroke:#444443;stroke-linejoin:miter;stroke-width:0.5;" />
   </g>
   <g id="patch_5">
    <path clip-path="url(#pfe8c29c467)" d="M 46.845714 83.16  L 56.588571 83.16  L 56.588571 83.16  L 46.845714 83.16  z " style="fill:#fefebb;stroke:#444443;stroke-linejoin:miter;stroke-width:0.5;" />
   </g>
   <g id="patch_6">
    <path clip-path="url(#pfe8c29c467)" d="M 56.588571 83.16  L 66.331429 83.16  L 66.331429 83.16  L 56.588571 83.16  z " style="fill:#fefebb;stroke:#444443;stroke-linejoin:miter;stroke-width:0.5;" />
   </g>
   <g id="patch_7">
    <path clip-path="url(#pfe8c29c467)" d="M 66.331429 83.16  L 76.074286 83.16  L 76.074286 83.16  L 66.331429 83.16  z " style="fill:#fefebb;stroke:#444443;stroke-linejoin:miter;stroke-width:0.5;" />
   </g>
   <g id="patch_8">
    <path clip-path="url(#pfe8c29c467)" d="M 76.074286 83.16  L 85.817143 83.16  L 85.817143 83.16  L 76.074286 83.16  z " style="fill:#fefebb;stroke:#444443;stroke-linejoin:miter;stroke-width:0.5;" />
   </g>
   <g id="patch_9">
    <path clip-path="url(#pfe8c29c467)" d="M 85.817143 83.16  L 95.56 83.16  L 95.56 83.16  L 85.817143 83.16  z " style="fill:#fefebb;stroke:#444443;stroke-linejoin:miter;stroke-width:0.5;" />
   </g>
   <g id="patch_10">
    <path clip-path="url(#pfe8c29c467)" d="M 95.56 83.16  L 105.302857 83.16  L 105.302857 83.16  L 95.56 83.16  z " style="fill:#fefebb;stroke:#444443;stroke-linejoin:miter;stroke-width:0.5;" />
   </g>
   <g id="patch_11">
    <path clip-path="url(#pfe8c29c467)" d="M 105.302857 83.16  L 115.045714 83.16  L 115.045714 83.16  L 105.302857 83.16  z " style="fill:#fefebb;stroke:#444443;stroke-linejoin:miter;stroke-width:0.5;" />
   </g>
   <g id="patch_12">
    <path clip-path="url(#pfe8c29c467)" d="M 115.045714 83.16  L 124.788571 83.16  L 124.788571 83.16  L 115.045714 83.16  z " style="fill:#fefebb;stroke:#444443;stroke-linejoin:miter;stroke-width:0.5;" />
   </g>
   <g id="patch_13">
    <path clip-path="url(#pfe8c29c467)" d="M 124.788571 83.16  L 134.531429 83.16  L 134.531429 83.16  L 124.788571 83.16  z " style="fill:#fefebb;stroke:#444443;stroke-linejoin:miter;stroke-width:0.5;" />
   </g>
   <g id="patch_14">
    <path clip-path="url(#pfe8c29c467)" d="M 134.531429 83.16  L 144.274286 83.16  L 144.274286 83.16  L 134.531429 83.16  z " style="fill:#fefebb;stroke:#444443;stroke-linejoin:miter;stroke-width:0.5;" />
   </g>
   <g id="patch_15">
    <path clip-path="url(#pfe8c29c467)" d="M 144.274286 83.16  L 154.017143 83.16  L 154.017143 83.16  L 144.274286 83.16  z " style="fill:#fefebb;stroke:#444443;stroke-linejoin:miter;stroke-width:0.5;" />
   </g>
   <g id="patch_16">
    <path clip-path="url(#pfe8c29c467)" d="M 154.017143 83.16  L 163.76 83.16  L 163.76 83.16  L 154.017143 83.16  z " style="fill:#fefebb;stroke:#444443;stroke-linejoin:miter;stroke-width:0.5;" />
   </g>
   <g id="patch_17">
    <path clip-path="url(#pfe8c29c467)" d="M 163.76 83.16  L 173.502857 83.16  L 173.502857 83.16  L 163.76 83.16  z " style="fill:#fefebb;stroke:#444443;stroke-linejoin:miter;stroke-width:0.5;" />
   </g>
   <g id="patch_18">
    <path clip-path="url(#pfe8c29c467)" d="M 173.502857 83.16  L 183.245714 83.16  L 183.245714 83.16  L 173.502857 83.16  z " style="fill:#fefebb;stroke:#444443;stroke-linejoin:miter;stroke-width:0.5;" />
   </g>
   <g id="patch_19">
    <path clip-path="url(#pfe8c29c467)" d="M 183.245714 83.16  L 192.988571 83.16  L 192.988571 83.16  L 183.245714 83.16  z " style="fill:#fefebb;stroke:#444443;stroke-linejoin:miter;stroke-width:0.5;" />
   </g>
   <g id="patch_20">
    <path clip-path="url(#pfe8c29c467)" d="M 192.988571 83.16  L 202.731429 83.16  L 202.731429 83.16  L 192.988571 83.16  z " style="fill:#fefebb;stroke:#444443;stroke-linejoin:miter;stroke-width:0.5;" />
   </g>
   <g id="patch_21">
    <path clip-path="url(#pfe8c29c467)" d="M 27.36 6.329431  L 37.102857 6.329431  L 37.102857 6.329431  L 27.36 6.329431  z " style="fill:#d9e6f5;stroke:#444443;stroke-linejoin:miter;stroke-width:0.5;" />
   </g>
   <g id="patch_22">
    <path clip-path="url(#pfe8c29c467)" d="M 37.102857 83.16  L 46.845714 83.16  L 46.845714 83.16  L 37.102857 83.16  z " style="fill:#d9e6f5;stroke:#444443;stroke-linejoin:miter;stroke-width:0.5;" />
   </g>
   <g id="patch_23">
    <path clip-path="url(#pfe8c29c467)" d="M 46.845714 83.16  L 56.588571 83.16  L 56.588571 83.16  L 46.845714 83.16  z " style="fill:#d9e6f5;stroke:#444443;stroke-linejoin:miter;stroke-width:0.5;" />
   </g>
   <g id="patch_24">
    <path clip-path="url(#pfe8c29c467)" d="M 56.588571 83.16  L 66.331429 83.16  L 66.331429 83.16  L 56.588571 83.16  z " style="fill:#d9e6f5;stroke:#444443;stroke-linejoin:miter;stroke-width:0.5;" />
   </g>
   <g id="patch_25">
    <path clip-path="url(#pfe8c29c467)" d="M 66.331429 83.16  L 76.074286 83.16  L 76.074286 83.16  L 66.331429 83.16  z " style="fill:#d9e6f5;stroke:#444443;stroke-linejoin:miter;stroke-width:0.5;" />
   </g>
   <g id="patch_26">
    <path clip-path="url(#pfe8c29c467)" d="M 76.074286 83.16  L 85.817143 83.16  L 85.817143 83.16  L 76.074286 83.16  z " style="fill:#d9e6f5;stroke:#444443;stroke-linejoin:miter;stroke-width:0.5;" />
   </g>
   <g id="patch_27">
    <path clip-path="url(#pfe8c29c467)" d="M 85.817143 83.16  L 95.56 83.16  L 95.56 83.16  L 85.817143 83.16  z " style="fill:#d9e6f5;stroke:#444443;stroke-linejoin:miter;stroke-width:0.5;" />
   </g>
   <g id="patch_28">
    <path clip-path="url(#pfe8c29c467)" d="M 95.56 83.16  L 105.302857 83.16  L 105.302857 83.16  L 95.56 83.16  z " style="fill:#d9e6f5;stroke:#444443;stroke-linejoin:miter;stroke-width:0.5;" />
   </g>
   <g id="patch_29">
    <path clip-path="url(#pfe8c29c467)" d="M 105.302857 83.16  L 115.045714 83.16  L 115.045714 83.16  L 105.302857 83.16  z " style="fill:#d9e6f5;stroke:#444443;stroke-linejoin:miter;stroke-width:0.5;" />
   </g>
   <g id="patch_30">
    <path clip-path="url(#pfe8c29c467)" d="M 115.045714 83.16  L 124.788571 83.16  L 124.788571 83.16  L 115.045714 83.16  z " style="fill:#d9e6f5;stroke:#444443;stroke-linejoin:miter;stroke-width:0.5;" />
   </g>
   <g id="patch_31">
    <path clip-path="url(#pfe8c29c467)" d="M 124.788571 83.16  L 134.531429 83.16  L 134.531429 83.16  L 124.788571 83.16  z " style="fill:#d9e6f5;stroke:#444443;stroke-linejoin:miter;stroke-width:0.5;" />
   </g>
   <g id="patch_32">
    <path clip-path="url(#pfe8c29c467)" d="M 134.531429 83.16  L 144.274286 83.16  L 144.274286 83.16  L 134.531429 83.16  z " style="fill:#d9e6f5;stroke:#444443;stroke-linejoin:miter;stroke-width:0.5;" />
   </g>
   <g id="patch_33">
    <path clip-path="url(#pfe8c29c467)" d="M 144.274286 83.16  L 154.017143 83.16  L 154.017143 83.16  L 144.274286 83.16  z " style="fill:#d9e6f5;stroke:#444443;stroke-linejoin:miter;stroke-width:0.5;" />
   </g>
   <g id="patch_34">
    <path clip-path="url(#pfe8c29c467)" d="M 154.017143 83.16  L 163.76 83.16  L 163.76 83.16  L 154.017143 83.16  z " style="fill:#d9e6f5;stroke:#444443;stroke-linejoin:miter;stroke-width:0.5;" />
   </g>
   <g id="patch_35">
    <path clip-path="url(#pfe8c29c467)" d="M 163.76 83.16  L 173.502857 83.16  L 173.502857 83.16  L 163.76 83.16  z " style="fill:#d9e6f5;stroke:#444443;stroke-linejoin:miter;stroke-width:0.5;" />
   </g>
   <g id="patch_36">
    <path clip-path="url(#pfe8c29c467)" d="M 173.502857 83.16  L 183.245714 83.16  L 183.245714 83.16  L 173.502857 83.16  z " style="fill:#d9e6f5;stroke:#444443;stroke-linejoin:miter;stroke-width:0.5;" />
   </g>
   <g id="patch_37">
    <path clip-path="url(#pfe8c29c467)" d="M 183.245714 83.16  L 192.988571 83.16  L 192.988571 83.16  L 183.245714 83.16  z " style="fill:#d9e6f5;stroke:#444443;stroke-linejoin:miter;stroke-width:0.5;" />
   </g>
   <g id="patch_38">
    <path clip-path="url(#pfe8c29c467)" d="M 192.988571 83.16  L 202.731429 83.16  L 202.731429 71.805498  L 192.988571 71.805498  z " style="fill:#d9e6f5;stroke:#444443;stroke-linejoin:miter;stroke-width:0.5;" />
   </g>
   <g id="patch_39">
    <path clip-path="url(#pfe8c29c467)" d="M 27.36 6.329431  L 37.102857 6.329431  L 37.102857 3.96  L 27.36 3.96  z " style="fill:#a1dab4;stroke:#444443;stroke-linejoin:miter;stroke-width:0.5;" />
   </g>
   <g id="patch_40">
    <path clip-path="url(#pfe8c29c467)" d="M 37.102857 83.16  L 46.845714 83.16  L 46.845714 83.16  L 37.102857 83.16  z " style="fill:#a1dab4;stroke:#444443;stroke-linejoin:miter;stroke-width:0.5;" />
   </g>
   <g id="patch_41">
    <path clip-path="url(#pfe8c29c467)" d="M 46.845714 83.16  L 56.588571 83.16  L 56.588571 83.16  L 46.845714 83.16  z " style="fill:#a1dab4;stroke:#444443;stroke-linejoin:miter;stroke-width:0.5;" />
   </g>
   <g id="patch_42">
    <path clip-path="url(#pfe8c29c467)" d="M 56.588571 83.16  L 66.331429 83.16  L 66.331429 83.16  L 56.588571 83.16  z " style="fill:#a1dab4;stroke:#444443;stroke-linejoin:miter;stroke-width:0.5;" />
   </g>
   <g id="patch_43">
    <path clip-path="url(#pfe8c29c467)" d="M 66.331429 83.16  L 76.074286 83.16  L 76.074286 83.16  L 66.331429 83.16  z " style="fill:#a1dab4;stroke:#444443;stroke-linejoin:miter;stroke-width:0.5;" />
   </g>
   <g id="patch_44">
    <path clip-path="url(#pfe8c29c467)" d="M 76.074286 83.16  L 85.817143 83.16  L 85.817143 83.16  L 76.074286 83.16  z " style="fill:#a1dab4;stroke:#444443;stroke-linejoin:miter;stroke-width:0.5;" />
   </g>
   <g id="patch_45">
    <path clip-path="url(#pfe8c29c467)" d="M 85.817143 83.16  L 95.56 83.16  L 95.56 83.16  L 85.817143 83.16  z " style="fill:#a1dab4;stroke:#444443;stroke-linejoin:miter;stroke-width:0.5;" />
   </g>
   <g id="patch_46">
    <path clip-path="url(#pfe8c29c467)" d="M 95.56 83.16  L 105.302857 83.16  L 105.302857 83.16  L 95.56 83.16  z " style="fill:#a1dab4;stroke:#444443;stroke-linejoin:miter;stroke-width:0.5;" />
   </g>
   <g id="patch_47">
    <path clip-path="url(#pfe8c29c467)" d="M 105.302857 83.16  L 115.045714 83.16  L 115.045714 83.16  L 105.302857 83.16  z " style="fill:#a1dab4;stroke:#444443;stroke-linejoin:miter;stroke-width:0.5;" />
   </g>
   <g id="patch_48">
    <path clip-path="url(#pfe8c29c467)" d="M 115.045714 83.16  L 124.788571 83.16  L 124.788571 83.16  L 115.045714 83.16  z " style="fill:#a1dab4;stroke:#444443;stroke-linejoin:miter;stroke-width:0.5;" />
   </g>
   <g id="patch_49">
    <path clip-path="url(#pfe8c29c467)" d="M 124.788571 83.16  L 134.531429 83.16  L 134.531429 83.16  L 124.788571 83.16  z " style="fill:#a1dab4;stroke:#444443;stroke-linejoin:miter;stroke-width:0.5;" />
   </g>
   <g id="patch_50">
    <path clip-path="url(#pfe8c29c467)" d="M 134.531429 83.16  L 144.274286 83.16  L 144.274286 83.16  L 134.531429 83.16  z " style="fill:#a1dab4;stroke:#444443;stroke-linejoin:miter;stroke-width:0.5;" />
   </g>
   <g id="patch_51">
    <path clip-path="url(#pfe8c29c467)" d="M 144.274286 83.16  L 154.017143 83.16  L 154.017143 83.16  L 144.274286 83.16  z " style="fill:#a1dab4;stroke:#444443;stroke-linejoin:miter;stroke-width:0.5;" />
   </g>
   <g id="patch_52">
    <path clip-path="url(#pfe8c29c467)" d="M 154.017143 83.16  L 163.76 83.16  L 163.76 83.16  L 154.017143 83.16  z " style="fill:#a1dab4;stroke:#444443;stroke-linejoin:miter;stroke-width:0.5;" />
   </g>
   <g id="patch_53">
    <path clip-path="url(#pfe8c29c467)" d="M 163.76 83.16  L 173.502857 83.16  L 173.502857 83.16  L 163.76 83.16  z " style="fill:#a1dab4;stroke:#444443;stroke-linejoin:miter;stroke-width:0.5;" />
   </g>
   <g id="patch_54">
    <path clip-path="url(#pfe8c29c467)" d="M 173.502857 83.16  L 183.245714 83.16  L 183.245714 83.16  L 173.502857 83.16  z " style="fill:#a1dab4;stroke:#444443;stroke-linejoin:miter;stroke-width:0.5;" />
   </g>
   <g id="patch_55">
    <path clip-path="url(#pfe8c29c467)" d="M 183.245714 83.16  L 192.988571 83.16  L 192.988571 83.16  L 183.245714 83.16  z " style="fill:#a1dab4;stroke:#444443;stroke-linejoin:miter;stroke-width:0.5;" />
   </g>
   <g id="patch_56">
    <path clip-path="url(#pfe8c29c467)" d="M 192.988571 71.805498  L 202.731429 71.805498  L 202.731429 71.805498  L 192.988571 71.805498  z " style="fill:#a1dab4;stroke:#444443;stroke-linejoin:miter;stroke-width:0.5;" />
   </g>
   <g id="patch_57">
    <path d="M 115.045714 83.9916  L 111.731194 91.476  L 118.360234 91.476  z " style="fill:#444443;" />
   </g>
   <g id="patch_58">
    <path d="M 27.36 83.16  L 27.36 -0  " style="fill:none;stroke:#ffffff;stroke-linecap:square;stroke-linejoin:miter;stroke-width:0.3;" />
   </g>
   <g id="patch_59">
    <path d="M 27.36 83.16  L 211.5 83.16  " style="fill:none;stroke:#ffffff;stroke-linecap:square;stroke-linejoin:miter;stroke-width:0.3;" />
   </g>
   <g id="text_6">
    
    <defs>
     <path d="M 10.6875 12.40625  L 21 12.40625  L 21 0  L 10.6875 0  z " id="DejaVuSans-46" />
     <path d="M 10.796875 72.90625  L 49.515625 72.90625  L 49.515625 64.59375  L 19.828125 64.59375  L 19.828125 46.734375  Q 21.96875 47.46875 24.109375 47.828125  Q 26.265625 48.1875 28.421875 48.1875  Q 40.625 48.1875 47.75 41.5  Q 54.890625 34.8125 54.890625 23.390625  Q 54.890625 11.625 47.5625 5.09375  Q 40.234375 -1.421875 26.90625 -1.421875  Q 22.3125 -1.421875 17.546875 -0.640625  Q 12.796875 0.140625 7.71875 1.703125  L 7.71875 11.625  Q 12.109375 9.234375 16.796875 8.0625  Q 21.484375 6.890625 26.703125 6.890625  Q 35.15625 6.890625 40.078125 11.328125  Q 45.015625 15.765625 45.015625 23.390625  Q 45.015625 31 40.078125 35.4375  Q 35.15625 39.890625 26.703125 39.890625  Q 22.75 39.890625 18.8125 39.015625  Q 14.890625 38.140625 10.796875 36.28125  z " id="DejaVuSans-53" />
    </defs>
    <g style="fill:#444443;" transform="translate(106.139464 99.792)scale(0.08 -0.08)">
     <use xlink:href="#DejaVuSans-48" />
     <use x="63.623047" xlink:href="#DejaVuSans-46" />
     <use x="95.410156" xlink:href="#DejaVuSans-53" />
     <use x="159.033203" xlink:href="#DejaVuSans-48" />
    </g>
   </g>
  </g>
 </g>
 <defs>
  <clipPath id="pfe8c29c467">
   <rect height="83.16" width="184.14" x="27.36" y="-0" />
  </clipPath>
 </defs>
</svg></g>

<g class="edge" id="edge4"><title>node0-&gt;node1</title>
<path d="M101.185,-143.765C98.296,-134.737 95.3331,-125.478 92.6785,-117.183" fill="none" stroke="#444443" stroke-width="0.3" />
<polygon fill="#444443" points="93.9543,-116.576 91.4018,-113.193 91.2875,-117.429 93.9543,-116.576" stroke="#444443" stroke-width="0.3" />
<text font-family="Times New Roman,serif" font-size="14.00" text-anchor="start" x="99.5" y="-124.8">&lt;</text>
</g>

<g class="edge" id="edge5"><title>node0-&gt;leaf4</title>
<path d="M150.841,-143.765C162.159,-129.438 173.938,-114.528 182.405,-103.811" fill="none" stroke="#444443" stroke-width="0.3" />
<polygon fill="#444443" points="183.541,-104.631 184.922,-100.625 181.343,-102.895 183.541,-104.631" stroke="#444443" stroke-width="0.3" />
<text font-family="Times New Roman,serif" font-size="14.00" text-anchor="start" x="167.5" y="-124.8">&#8805;</text>
</g>


<g class="node" id="node6"><title>legend</title>
<polygon fill="none" points="282.5,-218 206.5,-218 206.5,-161 282.5,-161 282.5,-218" stroke="black" stroke-width="0" />
<svg height="53px" preserveAspectRatio="xMinYMin meet" version="1.1" viewBox="0 0 95.959375 70.546875" width="72px" x="208.5" y="-215.5">
 <defs>
  <style type="text/css">
*{stroke-linecap:butt;stroke-linejoin:round;}
  </style>
 </defs>
 <g id="figure_1">
  <g id="patch_1">
   <path d="M 0 70.546875  L 95.959375 70.546875  L 95.959375 0  L 0 0  z " style="fill:#ffffff;" />
  </g>
  <g id="axes_1">
   <g id="legend_1">
    <g id="patch_2">
     <path d="M 2 70.546875  L 93.959375 70.546875  Q 95.959375 70.546875 95.959375 68.546875  L 95.959375 2  Q 95.959375 -0 93.959375 -0  L 2 -0  Q -0 -0 -0 2  L -0 68.546875  Q -0 70.546875 2 70.546875  z " style="fill:#e5e5e5;opacity:0.8;stroke:#444443;stroke-linejoin:miter;stroke-width:0.5;" />
    </g>
    <g id="text_1">
     
     <defs>
      <path d="M 67 4  Q 61.8125 1.3125 56.203125 -0.046875  Q 50.59375 -1.421875 44.484375 -1.421875  Q 26.265625 -1.421875 15.625 8.765625  Q 4.984375 18.953125 4.984375 36.375  Q 4.984375 53.859375 15.625 64.03125  Q 26.265625 74.21875 44.484375 74.21875  Q 50.59375 74.21875 56.203125 72.84375  Q 61.8125 71.484375 67 68.796875  L 67 53.71875  Q 61.765625 57.28125 56.6875 58.9375  Q 51.609375 60.59375 46 60.59375  Q 35.9375 60.59375 30.171875 54.140625  Q 24.421875 47.703125 24.421875 36.375  Q 24.421875 25.09375 30.171875 18.640625  Q 35.9375 12.203125 46 12.203125  Q 51.609375 12.203125 56.6875 13.859375  Q 61.765625 15.53125 67 19.09375  z " id="DejaVuSans-Bold-67" />
      <path d="M 8.40625 75.984375  L 25.875 75.984375  L 25.875 0  L 8.40625 0  z " id="DejaVuSans-Bold-108" />
      <path d="M 7.8125 21.296875  L 7.8125 54.6875  L 25.390625 54.6875  L 25.390625 49.21875  Q 25.390625 44.78125 25.34375 38.0625  Q 25.296875 31.34375 25.296875 29.109375  Q 25.296875 22.515625 25.640625 19.609375  Q 25.984375 16.703125 26.8125 15.375  Q 27.875 13.671875 29.609375 12.734375  Q 31.34375 11.8125 33.59375 11.8125  Q 39.0625 11.8125 42.1875 16.015625  Q 45.3125 20.21875 45.3125 27.6875  L 45.3125 54.6875  L 62.796875 54.6875  L 62.796875 0  L 45.3125 0  L 45.3125 7.90625  Q 41.359375 3.125 36.9375 0.84375  Q 32.515625 -1.421875 27.203125 -1.421875  Q 17.71875 -1.421875 12.765625 4.390625  Q 7.8125 10.203125 7.8125 21.296875  z " id="DejaVuSans-Bold-117" />
      <path d="M 51.125 52.984375  L 51.125 39.703125  Q 45.515625 42.046875 40.28125 43.21875  Q 35.0625 44.390625 30.421875 44.390625  Q 25.4375 44.390625 23.015625 43.140625  Q 20.609375 41.890625 20.609375 39.3125  Q 20.609375 37.203125 22.4375 36.078125  Q 24.265625 34.96875 29 34.421875  L 32.078125 33.984375  Q 45.515625 32.28125 50.140625 28.375  Q 54.78125 24.46875 54.78125 16.109375  Q 54.78125 7.375 48.328125 2.96875  Q 41.890625 -1.421875 29.109375 -1.421875  Q 23.6875 -1.421875 17.890625 -0.5625  Q 12.109375 0.296875 6 2  L 6 15.28125  Q 11.234375 12.75 16.71875 11.46875  Q 22.21875 10.203125 27.875 10.203125  Q 33.015625 10.203125 35.59375 11.609375  Q 38.1875 13.03125 38.1875 15.828125  Q 38.1875 18.171875 36.40625 19.3125  Q 34.625 20.453125 29.296875 21.09375  L 26.21875 21.484375  Q 14.546875 22.953125 9.859375 26.90625  Q 5.171875 30.859375 5.171875 38.921875  Q 5.171875 47.609375 11.125 51.796875  Q 17.09375 56 29.390625 56  Q 34.234375 56 39.546875 55.265625  Q 44.875 54.546875 51.125 52.984375  z " id="DejaVuSans-Bold-115" />
      <path d="M 27.484375 70.21875  L 27.484375 54.6875  L 45.515625 54.6875  L 45.515625 42.1875  L 27.484375 42.1875  L 27.484375 19  Q 27.484375 15.1875 29 13.84375  Q 30.515625 12.5 35.015625 12.5  L 44 12.5  L 44 0  L 29 0  Q 18.65625 0 14.328125 4.3125  Q 10.015625 8.640625 10.015625 19  L 10.015625 42.1875  L 1.3125 42.1875  L 1.3125 54.6875  L 10.015625 54.6875  L 10.015625 70.21875  z " id="DejaVuSans-Bold-116" />
      <path d="M 62.984375 27.484375  L 62.984375 22.515625  L 22.125 22.515625  Q 22.75 16.359375 26.5625 13.28125  Q 30.375 10.203125 37.203125 10.203125  Q 42.71875 10.203125 48.5 11.84375  Q 54.296875 13.484375 60.40625 16.796875  L 60.40625 3.328125  Q 54.203125 0.984375 48 -0.21875  Q 41.796875 -1.421875 35.59375 -1.421875  Q 20.75 -1.421875 12.515625 6.125  Q 4.296875 13.671875 4.296875 27.296875  Q 4.296875 40.671875 12.375 48.328125  Q 20.453125 56 34.625 56  Q 47.515625 56 55.25 48.234375  Q 62.984375 40.484375 62.984375 27.484375  z M 45.015625 33.296875  Q 45.015625 38.28125 42.109375 41.328125  Q 39.203125 44.390625 34.515625 44.390625  Q 29.4375 44.390625 26.265625 41.53125  Q 23.09375 38.671875 22.3125 33.296875  z " id="DejaVuSans-Bold-101" />
      <path d="M 49.03125 39.796875  Q 46.734375 40.875 44.453125 41.375  Q 42.1875 41.890625 39.890625 41.890625  Q 33.15625 41.890625 29.515625 37.5625  Q 25.875 33.25 25.875 25.203125  L 25.875 0  L 8.40625 0  L 8.40625 54.6875  L 25.875 54.6875  L 25.875 45.703125  Q 29.25 51.078125 33.609375 53.53125  Q 37.984375 56 44.09375 56  Q 44.96875 56 45.984375 55.921875  Q 47.015625 55.859375 48.96875 55.609375  z " id="DejaVuSans-Bold-114" />
     </defs>
     <g style="fill:#444443;" transform="translate(27.814062 15.598437)scale(0.1 -0.1)">
      <use xlink:href="#DejaVuSans-Bold-67" />
      <use x="73.388672" xlink:href="#DejaVuSans-Bold-108" />
      <use x="107.666016" xlink:href="#DejaVuSans-Bold-117" />
      <use x="178.857422" xlink:href="#DejaVuSans-Bold-115" />
      <use x="238.378906" xlink:href="#DejaVuSans-Bold-116" />
      <use x="286.181641" xlink:href="#DejaVuSans-Bold-101" />
      <use x="354.003906" xlink:href="#DejaVuSans-Bold-114" />
     </g>
    </g>
    <g id="patch_3">
     <path d="M 8 30.276562  L 28 30.276562  L 28 23.276562  L 8 23.276562  z " style="fill:#fefebb;stroke:#444443;stroke-linejoin:miter;stroke-width:0.4;" />
    </g>
    <g id="text_2">
     
     <defs>
      <path d="M 64.40625 67.28125  L 64.40625 56.890625  Q 59.421875 61.53125 53.78125 63.8125  Q 48.140625 66.109375 41.796875 66.109375  Q 29.296875 66.109375 22.65625 58.46875  Q 16.015625 50.828125 16.015625 36.375  Q 16.015625 21.96875 22.65625 14.328125  Q 29.296875 6.6875 41.796875 6.6875  Q 48.140625 6.6875 53.78125 8.984375  Q 59.421875 11.28125 64.40625 15.921875  L 64.40625 5.609375  Q 59.234375 2.09375 53.4375 0.328125  Q 47.65625 -1.421875 41.21875 -1.421875  Q 24.65625 -1.421875 15.125 8.703125  Q 5.609375 18.84375 5.609375 36.375  Q 5.609375 53.953125 15.125 64.078125  Q 24.65625 74.21875 41.21875 74.21875  Q 47.75 74.21875 53.53125 72.484375  Q 59.328125 70.75 64.40625 67.28125  z " id="DejaVuSans-67" />
      <path d="M 9.8125 72.90625  L 19.671875 72.90625  L 19.671875 8.296875  L 55.171875 8.296875  L 55.171875 0  L 9.8125 0  z " id="DejaVuSans-76" />
      <path d="M 8.6875 72.90625  L 18.609375 72.90625  L 18.609375 28.609375  Q 18.609375 16.890625 22.84375 11.734375  Q 27.09375 6.59375 36.625 6.59375  Q 46.09375 6.59375 50.34375 11.734375  Q 54.59375 16.890625 54.59375 28.609375  L 54.59375 72.90625  L 64.5 72.90625  L 64.5 27.390625  Q 64.5 13.140625 57.4375 5.859375  Q 50.390625 -1.421875 36.625 -1.421875  Q 22.796875 -1.421875 15.734375 5.859375  Q 8.6875 13.140625 8.6875 27.390625  z " id="DejaVuSans-85" />
      <path d="M 53.515625 70.515625  L 53.515625 60.890625  Q 47.90625 63.578125 42.921875 64.890625  Q 37.9375 66.21875 33.296875 66.21875  Q 25.25 66.21875 20.875 63.09375  Q 16.5 59.96875 16.5 54.203125  Q 16.5 49.359375 19.40625 46.890625  Q 22.3125 44.4375 30.421875 42.921875  L 36.375 41.703125  Q 47.40625 39.59375 52.65625 34.296875  Q 57.90625 29 57.90625 20.125  Q 57.90625 9.515625 50.796875 4.046875  Q 43.703125 -1.421875 29.984375 -1.421875  Q 24.8125 -1.421875 18.96875 -0.25  Q 13.140625 0.921875 6.890625 3.21875  L 6.890625 13.375  Q 12.890625 10.015625 18.65625 8.296875  Q 24.421875 6.59375 29.984375 6.59375  Q 38.421875 6.59375 43.015625 9.90625  Q 47.609375 13.234375 47.609375 19.390625  Q 47.609375 24.75 44.3125 27.78125  Q 41.015625 30.8125 33.5 32.328125  L 27.484375 33.5  Q 16.453125 35.6875 11.515625 40.375  Q 6.59375 45.0625 6.59375 53.421875  Q 6.59375 63.09375 13.40625 68.65625  Q 20.21875 74.21875 32.171875 74.21875  Q 37.3125 74.21875 42.625 73.28125  Q 47.953125 72.359375 53.515625 70.515625  z " id="DejaVuSans-83" />
      <path d="M -0.296875 72.90625  L 61.375 72.90625  L 61.375 64.59375  L 35.5 64.59375  L 35.5 0  L 25.59375 0  L 25.59375 64.59375  L -0.296875 64.59375  z " id="DejaVuSans-84" />
      <path d="M 9.8125 72.90625  L 55.90625 72.90625  L 55.90625 64.59375  L 19.671875 64.59375  L 19.671875 43.015625  L 54.390625 43.015625  L 54.390625 34.71875  L 19.671875 34.71875  L 19.671875 8.296875  L 56.78125 8.296875  L 56.78125 0  L 9.8125 0  z " id="DejaVuSans-69" />
      <path d="M 44.390625 34.1875  Q 47.5625 33.109375 50.5625 29.59375  Q 53.5625 26.078125 56.59375 19.921875  L 66.609375 0  L 56 0  L 46.6875 18.703125  Q 43.0625 26.03125 39.671875 28.421875  Q 36.28125 30.8125 30.421875 30.8125  L 19.671875 30.8125  L 19.671875 0  L 9.8125 0  L 9.8125 72.90625  L 32.078125 72.90625  Q 44.578125 72.90625 50.734375 67.671875  Q 56.890625 62.453125 56.890625 51.90625  Q 56.890625 45.015625 53.6875 40.46875  Q 50.484375 35.9375 44.390625 34.1875  z M 19.671875 64.796875  L 19.671875 38.921875  L 32.078125 38.921875  Q 39.203125 38.921875 42.84375 42.21875  Q 46.484375 45.515625 46.484375 51.90625  Q 46.484375 58.296875 42.84375 61.546875  Q 39.203125 64.796875 32.078125 64.796875  z " id="DejaVuSans-82" />
      <path d="M 50.984375 -16.609375  L 50.984375 -23.578125  L -0.984375 -23.578125  L -0.984375 -16.609375  z " id="DejaVuSans-95" />
      <path d="M 31.78125 66.40625  Q 24.171875 66.40625 20.328125 58.90625  Q 16.5 51.421875 16.5 36.375  Q 16.5 21.390625 20.328125 13.890625  Q 24.171875 6.390625 31.78125 6.390625  Q 39.453125 6.390625 43.28125 13.890625  Q 47.125 21.390625 47.125 36.375  Q 47.125 51.421875 43.28125 58.90625  Q 39.453125 66.40625 31.78125 66.40625  z M 31.78125 74.21875  Q 44.046875 74.21875 50.515625 64.515625  Q 56.984375 54.828125 56.984375 36.375  Q 56.984375 17.96875 50.515625 8.265625  Q 44.046875 -1.421875 31.78125 -1.421875  Q 19.53125 -1.421875 13.0625 8.265625  Q 6.59375 17.96875 6.59375 36.375  Q 6.59375 54.828125 13.0625 64.515625  Q 19.53125 74.21875 31.78125 74.21875  z " id="DejaVuSans-48" />
     </defs>
     <g style="fill:#444443;" transform="translate(31.5 30.276562)scale(0.1 -0.1)">
      <use xlink:href="#DejaVuSans-67" />
      <use x="69.824219" xlink:href="#DejaVuSans-76" />
      <use x="120.537109" xlink:href="#DejaVuSans-85" />
      <use x="193.730469" xlink:href="#DejaVuSans-83" />
      <use x="257.207031" xlink:href="#DejaVuSans-84" />
      <use x="318.291016" xlink:href="#DejaVuSans-69" />
      <use x="381.474609" xlink:href="#DejaVuSans-82" />
      <use x="450.957031" xlink:href="#DejaVuSans-95" />
      <use x="500.957031" xlink:href="#DejaVuSans-48" />
     </g>
    </g>
    <g id="patch_4">
     <path d="M 8 45.232812  L 28 45.232812  L 28 38.232812  L 8 38.232812  z " style="fill:#d9e6f5;stroke:#444443;stroke-linejoin:miter;stroke-width:0.4;" />
    </g>
    <g id="text_3">
     
     <defs>
      <path d="M 12.40625 8.296875  L 28.515625 8.296875  L 28.515625 63.921875  L 10.984375 60.40625  L 10.984375 69.390625  L 28.421875 72.90625  L 38.28125 72.90625  L 38.28125 8.296875  L 54.390625 8.296875  L 54.390625 0  L 12.40625 0  z " id="DejaVuSans-49" />
     </defs>
     <g style="fill:#444443;" transform="translate(31.5 45.232812)scale(0.1 -0.1)">
      <use xlink:href="#DejaVuSans-67" />
      <use x="69.824219" xlink:href="#DejaVuSans-76" />
      <use x="120.537109" xlink:href="#DejaVuSans-85" />
      <use x="193.730469" xlink:href="#DejaVuSans-83" />
      <use x="257.207031" xlink:href="#DejaVuSans-84" />
      <use x="318.291016" xlink:href="#DejaVuSans-69" />
      <use x="381.474609" xlink:href="#DejaVuSans-82" />
      <use x="450.957031" xlink:href="#DejaVuSans-95" />
      <use x="500.957031" xlink:href="#DejaVuSans-49" />
     </g>
    </g>
    <g id="patch_5">
     <path d="M 8 60.189062  L 28 60.189062  L 28 53.189062  L 8 53.189062  z " style="fill:#a1dab4;stroke:#444443;stroke-linejoin:miter;stroke-width:0.4;" />
    </g>
    <g id="text_4">
     
     <defs>
      <path d="M 19.1875 8.296875  L 53.609375 8.296875  L 53.609375 0  L 7.328125 0  L 7.328125 8.296875  Q 12.9375 14.109375 22.625 23.890625  Q 32.328125 33.6875 34.8125 36.53125  Q 39.546875 41.84375 41.421875 45.53125  Q 43.3125 49.21875 43.3125 52.78125  Q 43.3125 58.59375 39.234375 62.25  Q 35.15625 65.921875 28.609375 65.921875  Q 23.96875 65.921875 18.8125 64.3125  Q 13.671875 62.703125 7.8125 59.421875  L 7.8125 69.390625  Q 13.765625 71.78125 18.9375 73  Q 24.125 74.21875 28.421875 74.21875  Q 39.75 74.21875 46.484375 68.546875  Q 53.21875 62.890625 53.21875 53.421875  Q 53.21875 48.921875 51.53125 44.890625  Q 49.859375 40.875 45.40625 35.40625  Q 44.1875 33.984375 37.640625 27.21875  Q 31.109375 20.453125 19.1875 8.296875  z " id="DejaVuSans-50" />
     </defs>
     <g style="fill:#444443;" transform="translate(31.5 60.189062)scale(0.1 -0.1)">
      <use xlink:href="#DejaVuSans-67" />
      <use x="69.824219" xlink:href="#DejaVuSans-76" />
      <use x="120.537109" xlink:href="#DejaVuSans-85" />
      <use x="193.730469" xlink:href="#DejaVuSans-83" />
      <use x="257.207031" xlink:href="#DejaVuSans-84" />
      <use x="318.291016" xlink:href="#DejaVuSans-69" />
      <use x="381.474609" xlink:href="#DejaVuSans-82" />
      <use x="450.957031" xlink:href="#DejaVuSans-95" />
      <use x="500.957031" xlink:href="#DejaVuSans-50" />
     </g>
    </g>
   </g>
  </g>
 </g>
</svg></g>
</g>
</svg>